<svg xmlns="http://www.w3.org/2000/svg" width="2700" height="101" viewBox="0 0 2700 101" fill="none"><path d="M129.844 15.7314C122.394 17.6598 116.641 23.4527 114.722 30.9578C114.18 33.0774 114.166 33.919 114.166 63.6008C114.166 90.3693 114.216 94.1183 114.58 94.4822C115.318 95.2201 116.106 95.3035 116.88 94.7256L117.604 94.1856L117.741 63.4091L117.879 32.6329L118.517 30.8646C119.39 28.4466 119.951 27.4028 121.442 25.4191C123.814 22.2639 127.525 19.9986 131.714 19.1501C133.624 18.7628 135.471 18.7141 144.479 18.8137C154.133 18.9201 155.151 18.9762 156.691 19.4867C162.619 21.4523 166.957 26.008 168.555 31.9453C168.964 33.4633 169.036 34.9986 169.036 42.1222C169.036 51.5535 168.915 52.4078 167.043 56.1447C165.609 59.0094 162.61 62.022 159.824 63.3976C155.855 65.3573 156.241 65.3158 140.922 65.4305L127.108 65.5342L126.55 66.2427C125.848 67.135 125.852 67.4486 126.573 68.3661L127.154 69.1044L141.495 69.0164C155.656 68.9292 155.86 68.9201 157.761 68.288C163.553 66.3626 167.994 62.5785 170.529 57.4105C172.548 53.2946 172.614 52.8075 172.614 42.1222C172.614 33.762 172.555 32.4219 172.112 30.861C169.922 23.14 164.354 17.6758 156.686 15.7215C154.673 15.2086 153.666 15.1681 143.208 15.1821C132.941 15.1959 131.717 15.2462 129.844 15.7314Z" fill="black" fill-opacity="0.5"></path><path d="M174.307 15.6701C173.64 16.4075 173.722 17.7949 174.463 18.3145C174.953 18.6572 175.927 18.743 179.346 18.7444C181.695 18.7452 184.094 18.8783 184.677 19.04C185.26 19.202 186.281 19.8358 186.945 20.4486C187.275 20.7522 187.551 20.9847 187.782 21.2554C189.035 22.72 188.98 25.3021 188.98 46.2981C188.98 67.8856 188.989 68.2613 189.53 68.8024C190.236 69.5079 191.303 69.5051 192.012 68.7963C192.562 68.2457 192.567 68.0077 192.493 45.2105L192.418 22.1809L191.65 20.6158C190.66 18.6011 188.37 16.4903 186.356 15.7367C185.02 15.2366 184.217 15.167 179.798 15.167C175.269 15.167 174.717 15.2176 174.307 15.6701Z" fill="black" fill-opacity="0.5"></path><path d="M187.416 2.32589C184.374 5.3677 184.376 5.44169 187.59 8.65514C189.915 10.9799 190.101 11.1061 190.959 10.9403C191.608 10.8149 192.479 10.1446 194 8.6015C196.922 5.63671 196.915 5.34487 193.856 2.30224C190.766 -0.771756 190.513 -0.77093 187.416 2.32589Z" fill="black" fill-opacity="0.5"></path><path d="M203.436 15.7785C202.852 16.6122 202.898 17.533 203.558 18.1926C204.065 18.6995 204.48 18.7433 208.853 18.7493C209.131 18.7497 209.4 18.7497 209.659 18.7496C212.25 18.749 213.933 18.7487 215.484 19.2018C218.363 20.0427 220.785 22.4453 227.703 29.3071C228.076 29.6774 228.462 30.0606 228.863 30.4572C234.868 36.4091 239.062 40.3528 239.756 40.701C241.466 41.5589 243.35 41.7171 245.259 41.1628C246.843 40.7029 247.096 40.4771 256.781 30.8607L257.167 30.4772C265.03 22.6695 267.661 20.0562 270.781 19.1818C272.35 18.7419 274.043 18.7422 276.587 18.7427L276.836 18.7427C281.009 18.7427 281.673 18.5012 281.673 16.9818C281.673 15.3277 281.203 15.167 276.37 15.167C271.259 15.167 269.91 15.4088 266.82 16.879C264.532 17.9676 264.272 18.1998 254.68 27.7408C245.589 36.7843 244.798 37.5011 243.764 37.6397C243.151 37.7219 242.301 37.7029 241.875 37.5976C241.359 37.4697 237.856 34.1809 231.338 27.7053C220.99 17.4247 220.286 16.8514 216.663 15.7435C215.019 15.241 214.077 15.167 209.32 15.167C203.994 15.167 203.854 15.1816 203.436 15.7785Z" fill="black" fill-opacity="0.5"></path><path d="M241.438 42.6872C240.865 42.8277 239.999 43.1432 239.512 43.3883C239.025 43.6336 234.233 48.2009 228.863 53.538C222.273 60.0865 218.696 63.4441 217.861 63.8635C215.625 64.9866 214.133 65.2201 209.165 65.2234C204.821 65.2264 204.401 65.2707 203.732 65.7969C202.745 66.5733 202.759 67.7401 203.764 68.5361C204.496 69.1154 204.692 69.1308 209.746 69.0032L210.043 68.9957C213.172 68.9174 215.172 68.8674 217.005 68.287C220.254 67.2582 222.976 64.5626 230.522 57.0878L230.926 56.6882C236.22 51.444 240.859 46.9497 241.233 46.7008C242.07 46.1429 243.767 46.1149 244.761 46.6424C245.169 46.8595 249.526 51.0777 254.443 56.016C259.359 60.9546 264.097 65.4872 264.97 66.0884C265.844 66.69 267.391 67.5088 268.408 67.9082C270.125 68.5823 270.631 68.6426 275.434 68.7446C280.071 68.8431 280.664 68.8046 281.141 68.3733C281.83 67.7495 281.821 66.4751 281.123 65.7768C280.623 65.2767 280.203 65.2264 276.516 65.2234L276.161 65.2232C273.783 65.2223 272.196 65.2216 270.723 64.8111C267.764 63.9863 265.266 61.507 257.75 54.0467L257.191 53.4924C246.934 43.3138 246.406 42.8855 243.715 42.575C243.035 42.4963 242.01 42.5469 241.438 42.6872Z" fill="black" fill-opacity="0.5"></path><path d="M8.71044 38.8216C5.28053 42.2768 2.23294 45.5917 1.81101 46.3267C-0.517592 50.381 -0.606159 55.5517 1.57749 59.9646C2.165 61.1518 3.79084 62.9795 8.53881 67.7915L14.7338 74.0694L19.4097 73.9802C19.6796 73.9751 19.9373 73.9709 20.1842 73.9668C22.0654 73.9359 23.3153 73.9153 24.4727 73.5778C26.7646 72.9094 28.694 70.9979 34.4437 65.3017C34.8246 64.9243 35.2222 64.5304 35.6379 64.119C43.588 56.252 43.9425 55.9412 45.3431 55.6095C46.9604 55.2266 48.9023 55.4106 50.2121 56.071C50.6679 56.3007 54.6303 60.0568 59.0174 64.4177C59.2744 64.6732 59.5243 64.9218 59.7675 65.1636L59.7683 65.1643C65.6901 71.0531 67.5971 72.9495 69.8616 73.5987C70.9372 73.9071 72.0935 73.934 73.7989 73.9739L73.8073 73.9741C73.911 73.9765 74.0168 73.9789 74.1247 73.9815L74.2537 73.9846L78.213 74.0817L83.9798 68.3477C90.1239 62.2388 91.5718 60.3967 92.4404 57.5849C93.1217 55.3787 93.1712 51.6534 92.5477 49.53C91.5916 46.2755 90.6606 45.0394 84.4149 38.7349L78.4565 32.7201L74.238 32.818C70.5649 32.9033 69.8435 32.9965 68.6582 33.5395C67.6128 34.0186 65.4124 36.0309 59.1689 42.2168C54.1079 47.2313 50.6258 50.4684 49.9406 50.7952C48.4749 51.4944 45.6259 51.5057 44.302 50.8175C43.7726 50.5421 39.7499 46.753 35.3628 42.3973C29.3248 36.4022 27.0185 34.2887 25.8735 33.7009C24.4308 32.9602 24.1404 32.9173 19.6075 32.7784L14.854 32.6329L8.71044 38.8216Z" fill="black"></path><path d="M44.5771 6.91983C42.8442 7.15005 40.7046 7.92377 39.0086 8.93349C38.365 9.31692 33.5686 13.9087 28.3503 19.1374L18.8626 28.6446L20.3738 28.6468C22.8308 28.6501 25.3324 29.1647 27.3863 30.0892C29.1617 30.8885 29.9432 31.5819 37.4257 38.9973C41.8884 43.4199 45.8668 47.162 46.2667 47.3127C46.6664 47.4638 47.2853 47.5171 47.642 47.4316C47.9985 47.3458 51.8179 43.778 56.1293 39.5032C60.4408 35.2283 64.5872 31.3412 65.3436 30.8654C67.2563 29.662 69.8385 28.9197 72.1113 28.9197C73.4579 28.9197 74.0078 28.8187 74.0078 28.5715C74.0078 28.38 69.7686 24.0108 64.5872 18.8624C56.3483 10.6757 54.9251 9.37688 53.2413 8.50909C50.3301 7.0084 47.6329 6.51358 44.5771 6.91983Z" fill="black"></path><path fill-rule="evenodd" clip-rule="evenodd" d="M174.677 86.8871L174.678 87.9186L173.197 87.8261C171.376 87.7125 170.215 88.2522 169.722 89.4413C169.248 90.5855 169.636 92.098 170.584 92.8013C171.215 93.2692 171.567 93.3113 173.403 93.1391L175.502 92.9424V89.3992C175.502 86.4327 175.435 85.8557 175.09 85.8557C174.796 85.8557 174.677 86.1535 174.677 86.8871ZM180.728 89.4093V92.9633L182.5 93.1531C184.867 93.4064 186.25 92.7914 186.613 91.3256C186.921 90.0791 186.675 89.065 185.882 88.3111C185.34 87.7953 185.046 87.7434 183.41 87.8748L181.553 88.0242V86.9399C181.553 86.1596 181.438 85.8557 181.141 85.8557C180.795 85.8557 180.728 86.4338 180.728 89.4093ZM241.291 86.1277C238.584 86.7686 237.651 90.5065 239.715 92.4457C240.5 93.1834 242.321 93.4378 244.266 93.0813C245.337 92.8846 245.503 92.7633 245.503 92.1742C245.503 91.5724 245.408 91.5097 244.678 91.6276C244.224 91.7011 243.254 91.7619 242.522 91.7627C240.91 91.7644 240.415 91.2404 240.415 89.532C240.415 87.9318 241.063 87.506 243.502 87.506C245.281 87.506 245.366 87.476 245.366 86.8527C245.366 86.3411 245.179 86.1621 244.506 86.0276C243.447 85.8158 242.482 85.8458 241.291 86.1277ZM279.197 93.007H280.022H280.848V89.4314V85.8557H280.022H279.197V89.4314V93.007ZM197.782 89.5689V93.007H200.639C202.987 93.007 203.606 92.9182 204.112 92.5092C204.907 91.865 204.925 90.5879 204.148 89.9584C203.645 89.551 203.622 89.4454 203.976 89.1516C204.403 88.7974 204.517 87.5824 204.172 87.0659C203.721 86.389 202.644 86.1307 200.275 86.1307H197.782V89.5689ZM262.419 87.0934C262.419 87.5976 262.272 87.781 261.869 87.781C261.465 87.781 261.319 87.9645 261.319 88.4687C261.319 88.9728 261.465 89.1563 261.869 89.1563C262.353 89.1563 262.419 89.3398 262.419 90.6691C262.419 91.8152 262.552 92.3153 262.969 92.732C263.864 93.6267 265.995 93.4125 265.995 92.4275C265.995 92.0191 265.794 91.9068 265.062 91.9068C264.027 91.9068 263.794 91.577 263.794 90.1132C263.794 89.2443 263.856 89.1844 264.826 89.104C265.645 89.0364 265.857 88.9057 265.857 88.4687C265.857 88.0316 265.645 87.901 264.826 87.8333C263.939 87.7599 263.794 87.6537 263.794 87.0769C263.794 86.5444 263.652 86.4058 263.107 86.4058C262.557 86.4058 262.419 86.5433 262.419 87.0934ZM202.595 88.1936C202.595 88.6703 202.384 88.7547 201.014 88.8262C199.473 88.9065 199.432 88.8903 199.432 88.1936C199.432 87.4969 199.473 87.4807 201.014 87.561C202.384 87.6325 202.595 87.7169 202.595 88.1936ZM127.211 88.0333C127.146 88.0962 127.093 89.6742 127.093 91.5402C127.093 94.3721 127.161 94.9324 127.506 94.9324C127.792 94.9324 127.918 94.6442 127.918 93.9895V93.0469L129.362 93.1814C131.338 93.3654 132.638 92.6982 132.977 91.3256C133.286 90.0774 133.039 89.0606 132.248 88.3237C131.714 87.8264 131.35 87.7621 129.481 87.8349C128.297 87.8809 127.276 87.9703 127.211 88.0333ZM135.048 88.585C133.444 90.1891 134.278 92.8338 136.498 93.1875C137.922 93.4138 139.375 93.086 140.022 92.3923C140.572 91.8018 140.774 90.0062 140.4 89.0312C140.125 88.316 138.782 87.781 137.263 87.781C136.071 87.781 135.728 87.9056 135.048 88.585ZM141.608 87.9356C141.333 88.2109 143.405 93.007 143.799 93.007C144.009 93.007 144.599 92.1098 145.111 91.0129L146.041 89.0188L146.95 91.0173C147.547 92.3299 147.998 92.99 148.264 92.9405C148.676 92.8637 150.417 89.1412 150.453 88.2624C150.492 87.2953 149.971 87.8201 149.36 89.3626C149.312 89.483 149.267 89.5983 149.223 89.7085C148.721 90.9805 148.485 91.5787 148.247 91.5796C148.035 91.5804 147.822 91.1101 147.419 90.2223L147.411 90.2057L147.404 90.1903C147.369 90.1134 147.333 90.0334 147.295 89.9504C146.788 88.8378 146.241 87.8834 146.08 87.8297C145.919 87.7758 145.399 88.6095 144.926 89.6819C144.452 90.7544 143.974 91.6318 143.864 91.6318C143.754 91.6318 143.387 90.893 143.049 89.99C142.453 88.3966 141.915 87.6287 141.608 87.9356ZM152.73 88.0693C151.893 88.4049 151.213 90.0596 151.45 91.179C151.691 92.3136 152.265 92.9342 153.28 93.1572C154.431 93.4097 157.074 93.0455 157.074 92.6343C157.074 92.3956 156.537 92.3318 155.178 92.4085C153.533 92.5015 153.205 92.4391 152.702 91.9363C152.384 91.6175 152.123 91.2329 152.123 91.0817C152.123 90.9177 153.177 90.8066 154.736 90.8066C157.144 90.8066 157.349 90.7645 157.349 90.2694C157.349 89.381 156.779 88.4106 156.068 88.0863C155.271 87.7235 153.612 87.715 152.73 88.0693ZM159.001 90.4628C159 91.9772 159.111 93.007 159.274 93.007C159.433 93.007 159.549 92.1459 159.549 90.9736C159.549 88.766 159.662 88.6062 161.222 88.6062C161.746 88.6062 162.025 88.4654 162.025 88.2013C162.025 87.8864 161.689 87.8099 160.514 87.8575L159.004 87.9186L159.001 90.4628ZM163.412 88.552C162.732 89.2314 162.576 89.6132 162.584 90.5791C162.593 91.859 162.914 92.4564 163.863 92.9622C164.906 93.5175 168.076 93.2601 168.076 92.6198C168.076 92.3995 167.498 92.334 166.198 92.4074C164.71 92.4916 164.226 92.4182 163.86 92.0532C162.856 91.0487 163.248 90.8066 165.875 90.8066H168.351V90.012C168.351 88.6639 167.556 87.9893 165.795 87.8432C164.359 87.7241 164.189 87.7744 163.412 88.552ZM187.514 87.9631C187.414 88.0632 187.889 89.1912 188.568 90.4697C189.249 91.7481 189.805 92.9465 189.805 93.133C189.805 93.6947 188.847 94.3823 188.064 94.3823C187.206 94.3823 187.085 94.818 187.875 95.0686C189.058 95.444 189.884 94.6323 191.513 91.4942C193.1 88.4373 193.333 87.781 192.828 87.781C192.676 87.781 192.092 88.7093 191.531 89.8439C190.969 90.9785 190.444 91.9057 190.364 91.9046C190.283 91.9033 189.724 90.975 189.12 89.8417C188.033 87.8019 187.868 87.6091 187.514 87.9631ZM206.858 88.3311C206.858 88.7943 207.043 88.8818 208.027 88.8851C209.594 88.89 210.434 89.1398 210.434 89.6011C210.434 89.8849 209.992 89.9815 208.689 89.9815C206.429 89.9815 205.608 90.7546 206.208 92.318C206.494 93.0631 207.609 93.3013 209.913 93.1091L212.084 92.9278L212.08 90.9733C212.078 89.8984 211.985 88.8826 211.874 88.7162C211.452 88.085 210.409 87.781 208.664 87.781C207.042 87.781 206.858 87.8369 206.858 88.3311ZM213.857 88.025C213.79 88.0927 213.735 89.241 213.735 90.5775V93.007H214.56H215.385V91.2486C215.385 89.323 215.525 89.1563 217.14 89.1563C218.389 89.1563 218.686 89.5892 218.686 91.4117C218.686 92.93 218.719 93.007 219.373 93.007C220.046 93.007 220.061 92.9611 220.061 90.9441C220.061 88.0231 219.767 87.7692 216.474 87.8448C215.102 87.8765 213.925 87.9576 213.857 88.025ZM222.674 88.1133C221.751 88.6422 221.454 89.2366 221.445 90.5698C221.434 92.2127 222.047 92.9941 223.502 93.1883C224.926 93.3784 226.499 92.9655 226.613 92.3708C226.689 91.9764 226.451 91.9068 225.025 91.9068C223.489 91.9068 223.326 91.8488 223.087 91.2192C222.512 89.707 223.706 88.7 225.631 89.0738C226.301 89.2036 226.387 89.1381 226.387 88.5008C226.387 87.8069 226.33 87.7813 224.806 87.7893C223.936 87.794 222.976 87.9397 222.674 88.1133ZM228.686 88.039C227.876 88.3861 227.212 89.4044 227.212 90.2997C227.212 92.441 228.671 93.4631 231.336 93.19C233.268 92.9922 234.089 92.1681 234.089 90.4268C234.089 88.6879 233.216 87.9672 230.985 87.8649C230.045 87.822 229.01 87.9001 228.686 88.039ZM247.27 88.585C246.626 89.2295 246.466 89.6288 246.466 90.5962C246.466 92.7323 247.799 93.5008 250.882 93.1429C252.225 92.987 252.517 92.8615 252.517 92.4415C252.517 91.9937 252.251 91.92 250.389 91.8496C248.618 91.7828 248.244 91.6884 248.168 91.288C248.086 90.8597 248.337 90.8066 250.434 90.8066C252.785 90.8066 252.792 90.8044 252.792 90.0978C252.792 89.6811 252.461 89.0576 251.988 88.585C251.289 87.8861 250.981 87.781 249.629 87.781C248.277 87.781 247.969 87.8861 247.27 88.585ZM254.168 90.4611V93.007H254.98C255.792 93.007 255.793 93.0051 255.874 91.1504L255.955 89.2938H257.331H258.706L258.787 91.1504C258.868 93.0051 258.869 93.007 259.681 93.007H260.494V91.0693C260.494 89.386 260.406 89.0438 259.828 88.4656C259.211 87.849 258.98 87.8044 256.665 87.8575L254.168 87.915V90.4611ZM267.222 88.0203C267.152 88.0905 267.095 89.241 267.095 90.5775V93.007H267.908C268.719 93.007 268.72 93.0051 268.801 91.1504L268.883 89.2938L269.983 89.1563C270.854 89.0474 271.083 88.9041 271.083 88.4687C271.083 87.9738 270.896 87.9172 269.216 87.9059C268.19 87.8988 267.292 87.9505 267.222 88.0203ZM272.321 88.3311C272.321 88.7943 272.506 88.8818 273.49 88.8851C275.057 88.89 275.897 89.1398 275.897 89.6011C275.897 89.8849 275.454 89.9815 274.151 89.9815C271.892 89.9815 271.071 90.7546 271.671 92.318C271.957 93.0631 273.071 93.3013 275.375 93.1091L277.547 92.9278L277.543 90.9733C277.54 89.8984 277.448 88.8826 277.337 88.7162C276.915 88.085 275.872 87.781 274.127 87.781C272.504 87.781 272.321 87.8369 272.321 88.3311ZM156.294 89.2201C156.724 89.8973 156.502 89.9815 154.29 89.9815H152.056L152.466 89.3626C153.139 88.3468 155.68 88.2522 156.294 89.2201ZM167.182 88.9519C167.371 89.1013 167.526 89.3942 167.526 89.6024C167.526 89.8907 167.032 89.9815 165.463 89.9815C164.328 89.9815 163.402 89.8888 163.404 89.7752C163.428 88.6367 166.058 88.0635 167.182 88.9519ZM131.816 89.0614C132.503 89.6833 132.471 91.2049 131.756 91.92C131.295 92.381 130.907 92.4688 129.624 92.4014L128.056 92.3194L127.972 90.6947C127.915 89.581 128.001 88.9981 128.247 88.8422C128.899 88.4288 131.278 88.5748 131.816 89.0614ZM139.109 88.8224C139.713 89.2064 140.029 90.4741 139.721 91.2825C139.344 92.2743 139.021 92.4476 137.538 92.4528C135.847 92.4583 135.07 91.8768 135.07 90.6064C135.07 89.1464 135.696 88.6054 137.381 88.6103C138.152 88.6128 138.93 88.708 139.109 88.8224ZM174.677 90.3619C174.677 92.3351 174.55 92.4459 172.286 92.4531C170.971 92.4575 170.276 91.7721 170.276 90.4702C170.276 89.1852 171.131 88.6062 173.027 88.6062H174.677V90.3619ZM185.451 89.0614C186.138 89.6833 186.106 91.2049 185.391 91.92C184.93 92.381 184.542 92.4688 183.259 92.4014L181.691 92.3194L181.607 90.6947C181.55 89.581 181.636 88.9981 181.882 88.8422C182.534 88.4288 184.914 88.5748 185.451 89.0614ZM231.827 89.3095C232.5 89.7812 232.655 91.0297 232.108 91.5768C231.927 91.7583 231.271 91.9068 230.65 91.9068C229.332 91.9068 228.863 91.5355 228.863 90.4922C228.863 89.6583 229.725 88.8812 230.65 88.8812C230.961 88.8812 231.491 89.0741 231.827 89.3095ZM250.707 89.0482C251.604 89.3926 251.091 89.7064 249.629 89.7064C248.227 89.7064 247.652 89.3898 248.46 89.0633C248.958 88.8625 250.201 88.8543 250.707 89.0482ZM202.963 90.9111C203.101 91.6356 202.549 91.8978 200.876 91.9027C199.449 91.9068 199.432 91.8969 199.432 91.0685V90.2304L201.148 90.3121C202.573 90.38 202.881 90.4821 202.963 90.9111ZM210.102 90.9829C210.926 91.2038 210.744 91.6813 209.729 91.9643C208.714 92.2468 207.684 92.0174 207.684 91.5091C207.684 90.9403 208.93 90.6691 210.102 90.9829ZM275.564 90.9829C276.388 91.2038 276.207 91.6813 275.191 91.9643C274.179 92.2462 273.146 92.0177 273.146 91.5118C273.146 90.8847 274.275 90.6377 275.564 90.9829Z" fill="black" fill-opacity="0.5"></path><path d="M46.2274 59.3691C46.0005 59.4517 42.1635 63.1283 37.7008 67.539C32.1078 73.0668 29.1529 75.7882 28.1908 76.2973C26.1934 77.354 23.8991 77.8791 21.2773 77.8791C20.0231 77.8791 18.9971 77.9759 18.9971 78.0942C18.9971 78.2125 23.3603 82.6505 28.6928 87.9565C36.647 95.8714 38.6665 97.7374 39.9372 98.3475C44.4338 100.506 49.5302 100.41 53.5752 98.0928C54.8041 97.3886 74.0078 78.5896 74.0078 78.0906C74.0078 77.9743 73.2912 77.8791 72.4152 77.8791C71.5394 77.8791 70.1138 77.6946 69.2474 77.4687C65.9327 76.6053 65.2305 76.053 56.8169 67.6898C52.4298 63.3291 48.4919 59.6293 48.0661 59.4684C47.2333 59.1532 46.8735 59.134 46.2274 59.3691Z" fill="black"></path><path fill-rule="evenodd" clip-rule="evenodd" d="M461.629 47.8777C461.362 48.1887 461.127 48.5353 460.924 48.9175C460.429 49.834 460.182 50.9105 460.182 52.1471C460.182 53.3982 460.429 54.4893 460.924 55.4203C461.042 55.6425 461.171 55.8527 461.31 56.0508C458.324 80.8116 437.239 100 411.673 100C384.059 100 361.673 77.6142 361.673 50C361.673 22.3858 384.059 0 411.673 0C438.576 0 460.517 21.2478 461.629 47.8777ZM433.725 54.8748V47.8264H436.846V46.1898H433.725V43.1784H431.739V46.1898H430.19V47.8264H431.739V54.8748C431.739 56.0386 432.016 56.8751 432.568 57.3843C433.121 57.8934 433.951 58.148 435.056 58.148H436.846V56.4678H435.383C434.772 56.4678 434.343 56.3514 434.096 56.1186C433.849 55.8713 433.725 55.4567 433.725 54.8748ZM399.541 46.5607C398.814 46.1679 397.984 45.9715 397.053 45.9715C396.108 45.9715 395.249 46.2043 394.478 46.6698C393.707 47.1354 393.155 47.79 392.82 48.6338C392.442 47.7609 391.867 47.099 391.096 46.648C390.325 46.197 389.438 45.9715 388.434 45.9715C387.634 45.9715 386.899 46.1388 386.23 46.4734C385.575 46.808 385.051 47.2881 384.659 47.9137V46.1898H382.673V58.148H384.659V51.5579C384.659 50.3068 384.964 49.3539 385.575 48.6992C386.186 48.03 387.008 47.6954 388.041 47.6954C389.045 47.6954 389.838 48.0155 390.42 48.6556C391.016 49.2812 391.314 50.1904 391.314 51.3833V58.148H393.278V51.5579C393.278 50.3068 393.584 49.3539 394.195 48.6992C394.806 48.03 395.628 47.6954 396.661 47.6954C397.664 47.6954 398.457 48.0155 399.039 48.6556C399.636 49.2812 399.934 50.1904 399.934 51.3833V58.148H401.898V51.0996C401.898 49.994 401.687 49.0557 401.265 48.2846C400.843 47.5136 400.268 46.939 399.541 46.5607ZM405.155 48.9175C404.661 49.834 404.413 50.9032 404.413 52.1252C404.413 53.3327 404.661 54.4092 405.155 55.3549C405.65 56.3005 406.326 57.0351 407.185 57.5588C408.043 58.0826 409.003 58.3444 410.065 58.3444C411.098 58.3444 412 58.1189 412.771 57.6679C413.557 57.2024 414.146 56.6205 414.538 55.9222V58.148H416.546V46.1898H414.538V48.3719C414.16 47.6882 413.586 47.1208 412.815 46.6698C412.044 46.2188 411.134 45.9934 410.087 45.9934C409.025 45.9934 408.057 46.2479 407.185 46.7571C406.326 47.2663 405.65 47.9864 405.155 48.9175ZM413.993 49.7903C414.357 50.4595 414.538 51.2451 414.538 52.1471C414.538 53.049 414.357 53.8419 413.993 54.5256C413.629 55.1948 413.135 55.7113 412.509 56.075C411.898 56.4241 411.222 56.5987 410.48 56.5987C409.738 56.5987 409.061 56.4241 408.45 56.075C407.839 55.7113 407.352 55.1948 406.988 54.5256C406.624 53.8419 406.443 53.0418 406.443 52.1252C406.443 51.2233 406.624 50.4377 406.988 49.7685C407.352 49.0993 407.839 48.5901 408.45 48.241C409.061 47.8918 409.738 47.7173 410.48 47.7173C411.222 47.7173 411.898 47.8991 412.509 48.2628C413.135 48.612 413.629 49.1211 413.993 49.7903ZM424.135 58.3444C423.219 58.3444 422.397 58.1917 421.669 57.8862C420.942 57.5661 420.367 57.1297 419.945 56.5769C419.524 56.0095 419.291 55.3621 419.247 54.6347H421.298C421.357 55.2312 421.633 55.7185 422.128 56.0968C422.637 56.475 423.299 56.6642 424.113 56.6642C424.87 56.6642 425.466 56.4969 425.903 56.1623C426.339 55.8277 426.557 55.4058 426.557 54.8966C426.557 54.3729 426.325 53.9874 425.859 53.74C425.394 53.4782 424.674 53.2236 423.699 52.9763C422.811 52.7435 422.084 52.5108 421.517 52.278C420.964 52.0307 420.484 51.6743 420.076 51.2087C419.684 50.7287 419.487 50.1031 419.487 49.3321C419.487 48.7211 419.669 48.161 420.033 47.6518C420.396 47.1426 420.913 46.7426 421.582 46.4516C422.251 46.1461 423.015 45.9934 423.873 45.9934C425.197 45.9934 426.266 46.328 427.081 46.9972C427.896 47.6664 428.332 48.5829 428.39 49.7467H426.405C426.361 49.1211 426.106 48.6192 425.641 48.241C425.19 47.8627 424.579 47.6736 423.808 47.6736C423.095 47.6736 422.528 47.8264 422.106 48.1319C421.684 48.4374 421.473 48.8374 421.473 49.3321C421.473 49.7249 421.597 50.0522 421.844 50.314C422.106 50.5614 422.426 50.765 422.804 50.9251C423.197 51.0705 423.735 51.2378 424.419 51.427C425.277 51.6597 425.976 51.8925 426.514 52.1252C427.052 52.3435 427.51 52.6781 427.889 53.129C428.281 53.58 428.485 54.1692 428.5 54.8966C428.5 55.5512 428.318 56.1404 427.954 56.6642C427.59 57.1879 427.074 57.6025 426.405 57.908C425.75 58.1989 424.994 58.3444 424.135 58.3444ZM450.162 51.7106C450.162 52.0889 450.141 52.4889 450.097 52.9108H440.539C440.612 54.0892 441.012 55.013 441.739 55.6822C442.481 56.3368 443.376 56.6642 444.423 56.6642C445.282 56.6642 445.994 56.4678 446.562 56.075C447.144 55.6676 447.551 55.1294 447.784 54.4602H449.922C449.602 55.6094 448.962 56.5478 448.002 57.2752C447.042 57.988 445.849 58.3444 444.423 58.3444C443.289 58.3444 442.27 58.0898 441.368 57.5807C440.481 57.0715 439.783 56.3514 439.273 55.4203C438.764 54.4747 438.51 53.3836 438.51 52.1471C438.51 50.9105 438.757 49.8267 439.252 48.8956C439.746 47.9646 440.437 47.2517 441.325 46.7571C442.227 46.2479 443.259 45.9934 444.423 45.9934C445.558 45.9934 446.562 46.2407 447.435 46.7353C448.308 47.2299 448.977 47.9137 449.442 48.7865C449.922 49.6448 450.162 50.6195 450.162 51.7106ZM448.111 51.296C448.111 50.5395 447.944 49.8922 447.609 49.3539C447.275 48.8011 446.816 48.3865 446.234 48.1101C445.667 47.8191 445.034 47.6736 444.336 47.6736C443.332 47.6736 442.474 47.9937 441.761 48.6338C441.063 49.2739 440.663 50.1613 440.561 51.296H448.111ZM456.253 46.5389C455.613 46.9171 455.118 47.4481 454.769 48.1319V46.1898H452.784V58.148H454.769V51.6452C454.769 49.2302 455.882 48.0228 458.108 48.0228H458.632V45.9715C457.701 45.9715 456.908 46.1607 456.253 46.5389Z" fill="black" fill-opacity="0.7"></path><path fill-rule="evenodd" clip-rule="evenodd" d="M430.723 47.8264C430.692 48.5471 430.676 49.2717 430.676 50C430.676 77.6142 453.062 100 480.676 100C508.29 100 530.676 77.6142 530.676 50C530.676 22.3858 508.29 -2.41411e-06 480.676 0C454.344 2.30204e-06 432.766 20.3556 430.819 46.1898H431.739V43.1784H433.725V46.1898H436.845V47.8264H433.725V54.8748C433.725 55.4567 433.849 55.8713 434.096 56.1186C434.343 56.3514 434.772 56.4678 435.383 56.4678H436.845V58.148H435.056C433.95 58.148 433.121 57.8934 432.568 57.3843C432.016 56.8751 431.739 56.0386 431.739 54.8748V47.8264H430.723ZM497.066 48.9175C496.571 49.834 496.324 50.9032 496.324 52.1252C496.324 53.3327 496.571 54.4092 497.066 55.3549C497.561 56.3005 498.237 57.0351 499.096 57.5588C499.968 58.0826 500.936 58.3444 501.998 58.3444C503.031 58.3444 503.933 58.1189 504.704 57.6679C505.475 57.2024 506.057 56.6132 506.449 55.9004V58.148H508.457V42H506.449V48.3283C506.028 47.63 505.417 47.0699 504.616 46.648C503.816 46.2116 502.951 45.9934 502.02 45.9934C500.943 45.9934 499.968 46.2479 499.096 46.7571C498.237 47.2663 497.561 47.9864 497.066 48.9175ZM505.904 49.7903C506.268 50.4595 506.449 51.2451 506.449 52.1471C506.449 53.049 506.268 53.8419 505.904 54.5256C505.54 55.1948 505.046 55.7113 504.42 56.075C503.809 56.4241 503.133 56.5987 502.391 56.5987C501.649 56.5987 500.972 56.4241 500.361 56.075C499.75 55.7113 499.263 55.1948 498.899 54.5256C498.535 53.8419 498.354 53.0418 498.354 52.1252C498.354 51.2233 498.535 50.4377 498.899 49.7685C499.263 49.0993 499.75 48.5901 500.361 48.241C500.972 47.8918 501.649 47.7173 502.391 47.7173C503.133 47.7173 503.809 47.8991 504.42 48.2628C505.046 48.612 505.54 49.1211 505.904 49.7903ZM450.162 51.7106C450.162 52.0889 450.14 52.4889 450.097 52.9108H440.539C440.612 54.0892 441.012 55.013 441.739 55.6822C442.481 56.3368 443.376 56.6642 444.423 56.6642C445.282 56.6642 445.994 56.4678 446.562 56.075C447.144 55.6676 447.551 55.1294 447.784 54.4602H449.922C449.602 55.6094 448.962 56.5478 448.002 57.2752C447.042 57.988 445.849 58.3444 444.423 58.3444C443.288 58.3444 442.27 58.0898 441.368 57.5807C440.481 57.0715 439.782 56.3514 439.273 55.4203C438.764 54.4747 438.51 53.3836 438.51 52.1471C438.51 50.9105 438.757 49.8267 439.251 48.8956C439.746 47.9646 440.437 47.2517 441.325 46.7571C442.226 46.2479 443.259 45.9934 444.423 45.9934C445.558 45.9934 446.562 46.2407 447.435 46.7353C448.307 47.2299 448.977 47.9137 449.442 48.7865C449.922 49.6449 450.162 50.6196 450.162 51.7106ZM448.111 51.296C448.111 50.5395 447.944 49.8922 447.609 49.3539C447.275 48.8011 446.816 48.3865 446.234 48.1101C445.667 47.8191 445.034 47.6736 444.336 47.6736C443.332 47.6736 442.474 47.9937 441.761 48.6338C441.063 49.2739 440.663 50.1613 440.561 51.296H448.111ZM456.253 46.5389C455.613 46.9171 455.118 47.4481 454.769 48.1319V46.1898H452.783V58.148H454.769V51.6452C454.769 49.2302 455.882 48.0228 458.108 48.0228H458.632V45.9715C457.701 45.9715 456.908 46.1607 456.253 46.5389ZM460.182 52.1471C460.182 50.9105 460.429 49.834 460.924 48.9175C461.419 47.9864 462.102 47.2663 462.975 46.7571C463.863 46.2479 464.874 45.9934 466.008 45.9934C467.478 45.9934 468.685 46.3498 469.631 47.0626C470.591 47.7755 471.224 48.7647 471.529 50.0304H469.391C469.187 49.303 468.787 48.7283 468.191 48.3065C467.609 47.8846 466.881 47.6736 466.008 47.6736C464.874 47.6736 463.957 48.0664 463.259 48.852C462.561 49.623 462.211 50.7214 462.211 52.1471C462.211 53.5873 462.561 54.7002 463.259 55.4858C463.957 56.2714 464.874 56.6642 466.008 56.6642C466.881 56.6642 467.609 56.4605 468.191 56.0531C468.772 55.6458 469.173 55.0639 469.391 54.3074H471.529C471.209 55.5294 470.569 56.5114 469.609 57.2533C468.649 57.9807 467.449 58.3444 466.008 58.3444C464.874 58.3444 463.863 58.0898 462.975 57.5807C462.102 57.0715 461.419 56.3514 460.924 55.4203C460.429 54.4893 460.182 53.3982 460.182 52.1471ZM474.179 48.9175C473.684 49.834 473.437 50.9032 473.437 52.1252C473.437 53.3327 473.684 54.4092 474.179 55.3549C474.674 56.3005 475.35 57.0351 476.208 57.5588C477.067 58.0826 478.027 58.3444 479.089 58.3444C480.122 58.3444 481.024 58.1189 481.795 57.6679C482.58 57.2024 483.169 56.6205 483.562 55.9222V58.148H485.57V46.1898H483.562V48.3719C483.184 47.6882 482.609 47.1208 481.838 46.6698C481.067 46.2188 480.158 45.9934 479.111 45.9934C478.049 45.9934 477.081 46.2479 476.208 46.7571C475.35 47.2663 474.674 47.9864 474.179 48.9175ZM483.017 49.7903C483.38 50.4595 483.562 51.2451 483.562 52.1471C483.562 53.049 483.38 53.8419 483.017 54.5256C482.653 55.1948 482.158 55.7113 481.533 56.075C480.922 56.4241 480.245 56.5987 479.503 56.5987C478.761 56.5987 478.085 56.4241 477.474 56.075C476.863 55.7113 476.376 55.1948 476.012 54.5256C475.648 53.8419 475.466 53.0418 475.466 52.1252C475.466 51.2233 475.648 50.4377 476.012 49.7685C476.376 49.0993 476.863 48.5901 477.474 48.241C478.085 47.8918 478.761 47.7173 479.503 47.7173C480.245 47.7173 480.922 47.8991 481.533 48.2628C482.158 48.612 482.653 49.1211 483.017 49.7903ZM490.911 48.1319C491.261 47.4481 491.755 46.9171 492.395 46.5389C493.05 46.1607 493.843 45.9715 494.774 45.9715V48.0228H494.25C492.024 48.0228 490.911 49.2302 490.911 51.6452V58.148H488.926V46.1898H490.911V48.1319Z" fill="black" fill-opacity="0.5"></path><path fill-rule="evenodd" clip-rule="evenodd" d="M809.059 0.011051C797.755 0.489452 788.014 3.73982 780.913 9.40351C779.582 10.4648 777.048 12.9808 776.067 14.2155C772.693 18.461 770.752 23.215 770.046 28.9613C769.903 30.1262 769.905 34.2252 770.049 35.2517C771.019 42.1539 774.714 47.497 781.962 52.4796C784.376 54.1392 786.284 55.2621 791.763 58.2504C793.805 59.3637 795.971 60.5691 796.577 60.9291C801.341 63.7601 803.602 66.0021 804.338 68.6238C804.586 69.5093 804.585 70.8692 804.335 71.8099C803.545 74.7828 800.803 77.2552 796.781 78.6215C794.583 79.3681 792.244 79.7389 789.316 79.805C782.273 79.9639 774.074 78.1799 767.06 74.9625C766.021 74.4858 764.499 73.7062 764.288 73.5421C764.231 73.4977 764.164 73.4819 764.139 73.5071C764.045 73.6013 759.615 94.5894 759.677 94.6465C759.798 94.7575 761.652 95.4567 763.23 95.9865C768.496 97.7547 774.56 99.0484 780.26 99.6198C785.17 100.112 790.327 100.127 794.863 99.6615C808.828 98.2294 819.984 92.3891 825.826 83.4513C829.144 78.3748 830.73 72.5714 830.572 66.0913C830.509 63.5018 830.209 61.6028 829.527 59.4649C827.572 53.3409 823.214 48.4095 815.585 43.689C813.845 42.6117 811.774 41.4479 808.202 39.5389C804.163 37.3803 802.642 36.5105 801.064 35.4564C799.522 34.4267 798.688 33.7602 797.874 32.907C796.453 31.4165 795.837 30.0744 795.838 28.4711C795.841 24.9197 799.315 21.8781 804.735 20.6812C807.684 20.0301 811.691 19.9381 815.749 20.4287C820.397 20.9908 825.74 22.4489 829.786 24.2594C830.339 24.5068 830.801 24.6996 830.812 24.6878C830.824 24.6759 831.81 20.1458 833.002 14.6209C834.194 9.09594 835.19 4.51101 835.214 4.4321C835.268 4.2585 835.026 4.14649 833.33 3.55977C828.422 1.86216 822.353 0.627922 816.85 0.207932C816.222 0.160059 815.488 0.10271 815.218 0.0805713C814.6 0.0297575 809.876 -0.0235874 809.059 0.011051ZM611.181 1.61414C611.125 1.77728 610.653 4.56534 610.677 4.58936C610.689 4.60137 611.248 4.72505 611.918 4.86434C617.144 5.94948 622.542 7.51556 627.281 9.32133C631.447 10.9086 632.952 11.543 634.39 12.3192C636.976 13.7144 638.688 15.3647 639.638 17.3804C640.418 19.0323 640.37 18.8598 644.798 35.987C646.616 43.0188 648.247 49.3235 648.422 49.9975C648.737 51.212 655.905 78.912 656.656 81.8174C656.871 82.6487 657.924 86.72 658.996 90.8648L660.945 98.4008L674.08 98.4011L687.216 98.4013L707.407 50.0283C718.512 23.4232 727.611 1.62312 727.626 1.58366C727.641 1.54274 722.035 1.51202 714.561 1.51202H701.469L701.33 1.85922C701.253 2.05014 695.427 16.8195 688.382 34.6799C681.338 52.5403 675.542 67.2085 675.503 67.2758C675.452 67.362 675.431 67.367 675.429 67.2928C675.424 67.0831 664.817 11.2526 664.617 10.3862C663.862 7.10725 661.838 4.45358 658.942 2.94649C657.512 2.20241 656.041 1.7745 654.308 1.59804C652.987 1.46349 611.227 1.47909 611.181 1.61414ZM738.139 1.73668C738.114 1.8602 733.517 23.5409 727.924 49.9158C722.331 76.2908 717.734 97.9899 717.71 98.1358L717.665 98.4013H730.141H742.618L752.807 50.1813C758.411 23.6603 763.012 1.8602 763.031 1.73668L763.065 1.51202H750.624H738.184L738.139 1.73668ZM875.875 1.6058C871.75 2.03462 868.721 4.43716 866.569 8.98704C866.304 9.54746 830.029 96.7028 829.396 98.2992C829.364 98.3807 832.007 98.4013 842.448 98.4013H855.54L856.535 95.5216C857.082 93.9378 858.216 90.6481 859.054 88.2112L860.578 83.7805L876.548 83.7793C885.332 83.7787 892.519 83.7872 892.521 83.7985C892.522 83.8098 893.211 87.0908 894.051 91.0897L895.579 98.3605L907.148 98.3812C918.142 98.4009 918.715 98.3948 918.674 98.2586C918.628 98.1041 898.555 1.62034 898.555 1.55278C898.555 1.48007 876.59 1.53146 875.875 1.6058ZM884.767 45.8235C886.876 55.7043 888.602 63.8564 888.602 63.9392C888.602 64.0847 888.254 64.0898 878.232 64.0898C869.973 64.0898 867.87 64.069 867.897 63.9877C868.393 62.5149 880.894 27.7403 880.909 27.7886C880.922 27.8269 882.658 35.9427 884.767 45.8235Z" fill="black"></path><path fill-rule="evenodd" clip-rule="evenodd" d="M1015.95 0.503281C1015.33 0.759662 1014.4 1.44694 1013.89 2.03076C1012.36 3.76516 998.676 36.6978 998.676 38.6408C998.676 39.8437 999.209 40.9499 1000.33 42.0767C1001.95 43.7002 1002.12 43.7383 1007.84 43.7298C1011.32 43.7247 1014.26 43.4376 1015.1 43.0192C1015.93 42.6122 1017.1 41.0631 1017.9 39.3326L1019.29 36.3482H1023.63H1027.98L1028.95 38.9C1030.68 43.4569 1031.45 43.7383 1042.05 43.7383C1047.13 43.7383 1051.94 43.4887 1052.74 43.184C1053.54 42.8793 1054.67 41.8299 1055.27 40.8527C1056.27 39.1956 1056.37 39.1553 1056.72 40.2553C1057.55 42.889 1059.63 43.7383 1065.24 43.7383C1070.85 43.7383 1072.92 42.889 1073.76 40.2553C1074.11 39.1502 1074.2 39.1843 1075.18 40.8021C1075.75 41.7521 1076.7 42.785 1077.28 43.0988C1077.95 43.4569 1088.81 43.6718 1106.56 43.678L1134.77 43.6883L1136.4 42.0516C1137.91 40.5361 1138.03 40.0955 1138.03 36.1077V31.8004H1140.29H1142.56V36.1077C1142.56 40.0955 1142.68 40.5361 1144.19 42.0516L1145.82 43.6888H1158.17H1170.52L1172.26 41.8208L1174 39.9529L1177.68 41.6952C1181.19 43.3551 1181.77 43.4472 1189.89 43.6462C1198.33 43.8526 1198.43 43.8406 1200.13 42.4115C1201.07 41.6173 1202.18 39.9284 1202.59 38.6579L1203.35 36.3482H1207.78H1212.2L1213.43 39.2184C1215.25 43.4592 1216.1 43.7383 1227.19 43.7383C1236.24 43.7383 1236.58 43.6962 1238.12 42.3683C1239.46 41.2075 1239.75 40.4491 1239.99 37.3947L1240.28 33.7912L1242.94 38.0945C1244.47 40.5526 1246.24 42.6855 1247.08 43.0681C1249.02 43.9583 1261 43.9515 1262.95 43.059C1265.91 41.7049 1266.05 40.7476 1266.05 21.6049V3.96356L1264.4 2.10694L1262.75 0.250308H1256.48C1250.49 0.250308 1250.15 0.315114 1248.74 1.72663C1247.81 2.66347 1247.15 4.08578 1246.95 5.61553L1246.63 8.02698L1245.02 5.22897C1242.24 0.394128 1241.98 0.275322 1233.85 0.0666931C1229.74 -0.0379054 1226.02 0.137751 1225.12 0.479401C1223.13 1.24001 1221.31 4.23074 1221.28 6.78772C1221.25 8.77566 1221.25 8.77452 1219.96 5.76447C1217.64 0.366843 1217.37 0.238941 1208.4 0.324212C1204.12 0.364573 1200.11 0.422552 1199.49 0.452113C1198.87 0.481673 1195.86 0.360026 1192.82 0.180958C1186.03 -0.218108 1180.66 0.640276 1176.78 2.74191L1173.9 4.30464L1172.98 2.69871C1171.68 0.425969 1169.65 -0.151602 1163.71 0.0627117C1159.23 0.224157 1158.32 0.429948 1157.14 1.5396L1155.78 2.82832L1152.99 1.5396C1150.21 0.252016 1150.16 0.250312 1121.32 0.266798C1105.43 0.276462 1091.92 0.322508 1091.29 0.369691C1090.67 0.416874 1086.47 0.336145 1081.95 0.190049C1071.41 -0.150465 1071.21 -0.045869 1068.13 7.41076C1066.91 10.3509 1065.74 12.9613 1065.52 13.2109C1065.3 13.461 1064.02 11.2246 1062.67 8.24186C1059.07 0.269635 1059.1 0.290098 1049.76 0.0587302C1039.28 -0.199924 1037.23 0.927923 1037.18 6.95655L1037.16 9.34583L1035.29 5.36029C1033.99 2.57421 1032.96 1.16327 1031.89 0.670407C1030.15 -0.123746 1017.8 -0.253353 1015.95 0.503281ZM1036 21.2837L1042.58 36.6324L1042.73 21.1228L1042.88 5.61382L1049.13 5.77413L1055.38 5.93501L1060.25 16.5938C1062.93 22.4565 1065.3 27.2527 1065.51 27.2527C1065.73 27.2527 1067.92 22.4565 1070.39 16.5938L1074.88 5.93501L1081.25 5.77413L1087.61 5.61326V21.8334V38.0536H1083.93H1080.25V25.5472C1080.25 18.6687 1080.06 13.046 1079.82 13.0517C1079.59 13.0579 1076.97 18.6216 1074 25.4159L1068.59 37.7694L1065.19 37.9359L1061.78 38.1019L1056.51 25.998C1053.6 19.3407 1051 13.6503 1050.73 13.3536C1050.43 13.0381 1050.23 18.0571 1050.23 25.4335V38.0536L1042.44 38.0473L1034.65 38.0411L1033.22 34.4944L1031.8 30.9477L1023.71 30.7897L1015.61 30.6316L1013.94 34.3426L1012.26 38.0536H1008.31H1004.37L1004.96 36.5073C1005.28 35.6563 1008.36 28.3572 1011.81 20.2866L1018.08 5.61269L1023.75 5.77357L1029.42 5.93501L1036 21.2837ZM1119.33 9.0616V12.4724H1110.27H1101.21V15.3148V18.1571H1109.99H1118.77V21.5679V24.9788H1109.99H1101.21V28.3896V31.8004H1110.27H1119.33V34.927V38.0536H1106.59H1093.84V21.8522V5.65078H1106.59H1119.33V9.0616ZM1151.56 7.07195C1154.7 8.92289 1155.84 10.9211 1155.79 14.4422C1155.74 17.8956 1154.45 20.4651 1151.91 22.1313L1150.34 23.1671L1152.16 24.1107C1154.65 25.4017 1155.59 27.9746 1155.59 33.4876V38.0536H1151.98H1148.37L1148.11 33.4717C1147.72 26.8434 1147.25 26.467 1138.87 26.2004L1132.36 25.9929V32.0233V38.0536H1128.68H1125V21.7965V5.53936L1137.32 5.73718C1148.41 5.91511 1149.83 6.04871 1151.56 7.07195ZM1168.62 21.8522V38.0536H1164.65H1160.69V21.8522V5.65078H1164.65H1168.62V21.8522ZM1195.81 9.0616V12.4724H1190.98C1182.47 12.4724 1180.3 14.4359 1180.27 22.1364C1180.25 29.0473 1182.2 31.2405 1188.33 31.2228L1191.56 31.2138L1196.94 18.4414L1202.32 5.66897L1208.04 5.65988L1213.75 5.65078L1220.22 20.8323L1226.68 36.0133L1226.83 20.8323L1226.98 5.65078H1232.84H1238.7L1245.43 16.8252L1252.17 28.0002L1252.33 16.8252L1252.48 5.65078H1256.43H1260.39V21.8726V38.0945L1254.87 37.9319L1249.36 37.7694L1242.27 25.9781C1238.37 19.493 1234.99 14.1852 1234.75 14.1824C1234.52 14.1801 1234.33 19.5573 1234.33 26.1316V38.0854L1226.62 37.9274L1218.9 37.7694L1217.45 34.2016L1215.99 30.6345L1207.76 30.7908L1199.54 30.9477L1198.15 34.5007L1196.76 38.0536H1190.72C1180.03 38.0536 1175.4 35.5489 1173.41 28.6795C1171.91 23.4939 1172.47 16.3215 1174.7 12.3627C1177.43 7.50741 1181.59 5.75481 1190.57 5.68887L1195.81 5.65078V9.0616ZM1020.87 17.3192C1019.57 20.6254 1018.5 23.5735 1018.5 23.8703C1018.5 24.1715 1020.76 24.4103 1023.6 24.4103C1026.41 24.4103 1028.7 24.1966 1028.7 23.9356C1028.7 23.2046 1024.2 12.278 1023.69 11.763C1023.44 11.5128 1022.17 14.013 1020.87 17.3192ZM1206.81 13.3797C1206.31 14.6002 1205.16 17.3846 1204.25 19.5675C1203.35 21.7504 1202.61 23.7327 1202.61 23.9731C1202.61 24.2136 1205.03 24.4103 1207.99 24.4103C1210.95 24.4103 1213.37 24.3063 1213.37 24.1789C1213.37 23.789 1208.27 11.7169 1207.99 11.4298C1207.84 11.282 1207.31 12.1598 1206.81 13.3797ZM1132.36 16.1675V19.8625H1138.35C1145.83 19.8625 1147.63 19.082 1147.65 15.8292C1147.67 13.0153 1146.26 12.4724 1138.97 12.4724H1132.36V16.1675ZM1190.71 18.4038C1190.71 19.5044 1187.57 25.5472 1187 25.5472C1186.02 25.5472 1185.45 22.7151 1185.92 20.1945C1186.28 18.272 1186.43 18.1571 1188.51 18.1571C1189.72 18.1571 1190.71 18.268 1190.71 18.4038ZM1062.08 57.9063L1060.42 59.5679V77.5469C1060.42 97.2274 1060.55 98.0892 1063.69 99.3933C1064.84 99.8742 1070.12 100.019 1082.15 99.8998L1099 99.7326L1102.77 95.842L1106.53 91.9514L1109.96 95.6544C1111.84 97.6907 1114.05 99.5246 1114.87 99.7292C1115.68 99.9339 1120.2 100.018 1124.91 99.9168C1133.37 99.7349 1133.49 99.7139 1135.02 98.1841C1136.3 96.8931 1136.6 96.0273 1136.79 92.9718L1137.02 89.3075L1141.91 88.9146C1144.61 88.6986 1148.15 88.0574 1149.78 87.4906L1152.76 86.4594V91.4062C1152.76 99.0243 1154.25 100.269 1162.97 99.9322C1167.99 99.7383 1168.19 99.6781 1169.8 97.876C1171.29 96.2007 1171.45 95.6323 1171.45 92.0492V88.079H1173.43H1175.42L1175.42 91.3477C1175.42 95.1604 1176.74 98.2535 1178.81 99.2841C1179.9 99.8236 1187.77 99.9583 1212.52 99.8605L1244.81 99.7326L1248.02 98.2199C1250.55 97.0335 1251.3 96.8738 1251.54 97.4792C1251.7 97.9044 1252.65 98.6758 1253.65 99.1943C1256.19 100.514 1275.22 100.123 1279.04 98.6724C1282.57 97.3348 1285.03 95.2923 1286.83 92.2209C1288.1 90.0368 1288.41 88.7356 1288.59 84.708C1288.81 80.142 1288.71 79.6281 1287.07 76.5163C1285.46 73.4727 1285.39 73.0958 1286.16 71.9844C1286.78 71.1079 1287.01 69.2188 1287.01 65.1702C1287.01 59.6987 1286.97 59.5281 1285.3 57.8557L1283.6 56.144L1272.13 56.3362C1260.92 56.5249 1260.61 56.5619 1257.98 58.0507L1255.29 59.573L1253.59 57.8671L1251.89 56.1611L1240.42 56.3447C1230.13 56.5101 1228.71 56.6511 1226.63 57.713L1224.31 58.8977L1222.77 57.5709C1221.25 56.2554 1221.12 56.2446 1206.58 56.2446H1191.93L1190.28 57.6414C1189.33 58.4429 1188.4 58.8283 1188.11 58.5458C1187.83 58.2747 1186.21 57.6465 1184.52 57.1491C1182.11 56.4419 1178.69 56.2446 1168.83 56.2446C1156.39 56.2446 1156.2 56.2634 1154.66 57.5862L1153.11 58.9284L1150.53 57.7283C1148.12 56.6096 1146.82 56.5169 1131.34 56.3481L1114.75 56.1673L1110.72 60.1091L1106.69 64.0509L1102.95 60.1478L1099.21 56.2446H1081.47H1063.73L1062.08 57.9063ZM1101.88 67.1775L1106.81 72.4461L1111.7 67.1877L1116.59 61.9293H1130.61C1146.46 61.9293 1149.35 62.3989 1151.85 65.3754C1154.01 67.9506 1154.74 71.2307 1153.97 74.957C1152.74 81.0038 1149.49 82.7791 1138.67 83.3289L1131.23 83.7063V89.0192V94.3322L1123.72 94.3242L1116.22 94.3168L1111.43 88.8402L1106.63 83.3635L1101.51 88.8618L1096.39 94.36L1081.24 94.3464L1066.09 94.3322V78.1308V61.9293L1081.52 61.9191L1096.96 61.9083L1101.88 67.1775ZM1183.04 62.5598C1184.27 62.9026 1186.12 64.027 1187.14 65.0576C1188.83 66.7511 1189.01 67.2525 1189.01 70.2574C1189.01 73.9553 1187.8 76.5584 1185.34 78.1774L1183.88 79.1381L1185.81 80.4535C1188.29 82.1481 1188.51 82.77 1188.87 89.0738L1189.17 94.3322H1185.12H1181.08V89.7588C1181.08 85.6607 1180.94 85.0399 1179.69 83.7899C1178.38 82.4767 1177.93 82.3943 1172.04 82.3943H1165.79V88.3632V94.3322H1162.1H1158.42V78.1308V61.9293L1169.61 61.9328C1175.98 61.9345 1181.76 62.2045 1183.04 62.5598ZM1219.6 65.0559V68.1825H1210.54H1201.47V71.3091V74.4357H1210.25H1219.03V77.5623V80.6889H1210.25H1201.47V84.0997V87.5105H1210.54H1219.6V90.9213V94.3322H1206.85H1194.11V78.1308V61.9293H1206.85H1219.6V65.0559ZM1249.62 65.3402V68.751H1241.24C1232.19 68.751 1231.5 68.9602 1231.5 71.6871C1231.5 73.8405 1232.51 74.2191 1239.41 74.6534C1248.57 75.2299 1251.32 77.4094 1251.32 84.0997C1251.32 88.2171 1249.92 90.8116 1246.73 92.6137C1244.4 93.9297 1243.61 94.0354 1234.47 94.2412L1224.7 94.4612V90.9856V87.5105H1233.01C1242.01 87.5105 1243.39 87.0893 1243.39 84.3362C1243.39 81.9981 1242.15 81.4478 1236.09 81.113C1226.67 80.5922 1223.85 78.394 1223.85 71.5933C1223.85 66.9472 1224.88 65.1543 1228.68 63.2084C1230.96 62.0368 1231.94 61.9293 1240.4 61.9293H1249.62V65.3402ZM1281.35 65.3402V68.751H1272.96C1264.11 68.751 1263.22 68.992 1263.22 71.3824C1263.22 73.7098 1264.46 74.235 1270.93 74.6318C1280.35 75.2105 1283.04 77.3156 1283.04 84.1088C1283.05 88.2166 1281.64 90.8128 1278.46 92.6137C1276.13 93.9297 1275.33 94.0354 1266.19 94.2412L1256.42 94.4612V90.9856V87.5105H1264.88C1274.03 87.5105 1275.11 87.1797 1275.11 84.3839C1275.11 81.9947 1273.9 81.4495 1267.81 81.113C1258.4 80.5922 1255.57 78.394 1255.57 71.5933C1255.57 66.9472 1256.6 65.1543 1260.4 63.2084C1262.68 62.0368 1263.67 61.9293 1272.12 61.9293H1281.35V65.3402ZM1117.25 71.7565L1111.49 78.0762L1114.24 81.2301C1115.75 82.9645 1118.53 86.0467 1120.4 88.079L1123.81 91.774L1123.84 78.5571C1123.85 71.2875 1123.68 65.3618 1123.44 65.3885C1123.21 65.4152 1120.42 68.2803 1117.25 71.7565ZM1073.45 71.3091V74.4357H1081.95H1090.44V77.5469V80.6587L1082.09 80.8156L1073.73 80.9731L1073.56 84.2418L1073.39 87.5105H1083.24H1093.09L1097.42 82.7445L1101.74 77.9784L1097.44 73.0805L1093.14 68.1825H1083.29H1073.45V71.3091ZM1131.23 72.4461V76.7096H1137.22C1140.51 76.7096 1143.71 76.4384 1144.32 76.1064C1146.95 74.6966 1146.69 70.0971 1143.92 68.8294C1143.14 68.4736 1139.97 68.1825 1136.87 68.1825H1131.23V72.4461ZM1165.79 72.1618V76.2389L1172.35 76.0479C1178.45 75.8705 1178.99 75.7619 1180 74.5147C1180.59 73.7768 1181.08 72.7178 1181.08 72.1618C1181.08 71.6059 1180.59 70.5468 1180 69.8089C1178.99 68.5617 1178.45 68.4531 1172.35 68.2757L1165.79 68.0847V72.1618Z" fill="black"></path><path fill-rule="evenodd" clip-rule="evenodd" d="M1403.52 22.3201C1402.68 22.7089 1401.82 23.5902 1401.49 24.3946C1401.36 24.7246 1398.64 41.4069 1395.46 61.4665L1389.68 97.9386L1389.99 98.6296C1390.16 99.0096 1390.55 99.4735 1390.85 99.6605C1391.38 99.9882 1391.72 100.001 1400.28 100L1409.17 99.9995L1411.21 87.099C1412.33 80.0037 1413.32 73.9134 1413.41 73.5648C1413.62 72.7251 1414.63 71.5711 1415.5 71.1787C1416.11 70.8979 1416.69 70.8624 1420.73 70.8576C1429.75 70.8471 1433.95 70.3587 1438.62 68.7759C1448.38 65.4657 1454.31 58.2619 1456.87 46.6309C1458.16 40.7771 1457.91 36.1296 1456.11 32.3848C1455.38 30.8675 1453.81 28.7202 1452.65 27.6436C1449.48 24.699 1444.78 22.9435 1438.22 22.2462C1436.36 22.048 1432.69 21.9985 1420.04 22C1404.97 22.0017 1404.17 22.0174 1403.52 22.3201Z" fill="black" fill-opacity="0.5"></path><path fill-rule="evenodd" clip-rule="evenodd" d="M1384.55 0.369366C1383.59 0.818016 1382.6 1.8348 1382.23 2.76296C1382.07 3.14376 1378.96 22.3926 1375.31 45.5383L1368.68 87.6214L1369.03 88.4188C1369.23 88.8572 1369.67 89.3925 1370.02 89.6083C1370.63 89.9863 1371.02 90.0006 1380.84 90L1391.03 89.9994L1393.38 75.1142C1394.66 66.9273 1395.8 59.9 1395.9 59.4979C1396.15 58.529 1397.3 57.1974 1398.29 56.7446C1399 56.4206 1399.66 56.3797 1404.29 56.3741C1414.65 56.3621 1419.46 55.7985 1424.81 53.9722C1436.01 50.1528 1442.82 41.8407 1445.75 28.4203C1447.23 21.6658 1446.94 16.3034 1444.88 11.9825C1444.04 10.2318 1442.25 7.7541 1440.91 6.5118C1437.27 3.11428 1431.89 1.08863 1424.36 0.284106C1422.22 0.0554289 1418.01 -0.00174041 1403.51 3.99475e-05C1386.22 0.00201812 1385.3 0.0200195 1384.55 0.369366Z" fill="black" fill-opacity="0.7"></path><path fill-rule="evenodd" clip-rule="evenodd" d="M1496.42 24.2065C1496.71 23.5516 1497.31 22.9375 1497.98 22.6201L1498.52 22.3626L1512.24 22.3999C1524.39 22.4331 1526.08 22.4578 1526.99 22.6148C1529.93 23.1222 1531.84 23.6687 1533.66 24.5213C1537.95 26.5281 1540.48 29.7184 1541.47 34.3702C1541.77 35.7563 1541.88 39.0166 1541.7 40.785C1541.18 45.6808 1539.74 50.3385 1537.71 53.696C1534.36 59.2261 1529.18 62.5681 1522.02 63.8111C1519.76 64.2042 1518.56 64.275 1513 64.3428L1507.49 64.41L1506.91 64.7275C1506.3 65.0668 1505.8 65.6101 1505.54 66.2216C1505.45 66.429 1504.8 70.2969 1504.08 74.817L1504.08 74.8416C1502.85 82.6386 1502.69 83.6304 1502.12 84.2362C1502.04 84.3245 1501.95 84.4046 1501.84 84.4964L1501.84 84.4985C1501.62 84.6888 1501.22 84.9465 1500.95 85.0711C1500.48 85.2914 1500.29 85.2989 1494.63 85.3309C1490.66 85.3534 1488.66 85.3267 1488.39 85.2474C1487.54 85.0009 1486.99 84.2861 1486.99 83.4339C1486.99 83.1563 1489.07 69.828 1491.6 53.8156C1494.95 32.559 1496.26 24.5684 1496.42 24.2065ZM1524.56 39.5103C1523.99 37.1013 1522.32 35.7664 1519.21 35.2229C1518.46 35.0922 1517.29 35.0325 1514.83 34.9985C1511.49 34.9526 1511.48 34.9529 1511.05 35.2014L1511.05 35.2042C1510.94 35.2645 1510.85 35.317 1510.77 35.381C1510.22 35.807 1510.08 36.7449 1508.95 43.9265L1508.94 43.9754C1508.29 48.1332 1507.76 51.5665 1507.76 51.6052C1507.76 51.7484 1515.99 51.5659 1516.89 51.4026C1519.35 50.9578 1520.81 50.2873 1522.08 49.0183C1523.01 48.082 1523.55 47.1936 1524.03 45.8072C1524.66 43.9915 1524.91 40.9838 1524.56 39.5103ZM1550.48 45.8725C1553.35 44.099 1556.68 42.8956 1559.9 42.4649C1561.32 42.2758 1564.35 42.2404 1565.91 42.3948C1570.93 42.8917 1574.08 44.3222 1575.92 46.9401C1576.24 47.4051 1576.53 47.768 1576.55 47.7465C1576.57 47.7251 1576.69 47.0565 1576.82 46.2608C1577.1 44.4761 1577.29 44.0117 1577.9 43.6107L1578.36 43.3068L1584.13 43.2763C1587.99 43.2558 1590.03 43.2838 1590.32 43.3614C1590.56 43.425 1590.92 43.6441 1591.12 43.8484C1591.18 43.9029 1591.23 43.9452 1591.28 43.9842C1591.32 44.0194 1591.36 44.052 1591.4 44.0884C1591.85 44.5436 1591.68 45.6049 1589.41 59.9148C1589.21 61.187 1588.99 62.564 1588.76 64.0545C1586.46 78.5981 1585.71 83.1416 1585.53 83.5127C1585.23 84.1388 1584.59 84.7748 1583.96 85.0665C1583.47 85.2918 1583.32 85.2987 1578.14 85.3295C1574.59 85.3506 1572.67 85.3226 1572.39 85.2459C1571.81 85.0914 1571.25 84.5423 1571.07 83.9664C1570.95 83.5589 1570.96 83.3112 1571.17 82.0298C1571.3 81.2216 1571.41 80.4894 1571.41 80.4026C1571.41 80.312 1571.16 80.4759 1570.84 80.7873C1568.49 83.0317 1565.18 84.8087 1561.7 85.6877C1557.82 86.6655 1553.17 86.5144 1549.49 85.2915C1544.32 83.5754 1540.53 79.2716 1539.06 73.4542C1537.55 67.4874 1538.76 60.1196 1542.18 54.4243C1544.27 50.9425 1547.27 47.8561 1550.48 45.8725ZM1597.02 45.1683C1597.02 44.4202 1597.65 43.5869 1598.4 43.3572C1598.56 43.3076 1601.34 43.276 1604.58 43.2868L1610.47 43.3068L1610.96 43.5604C1611.57 43.8785 1612.21 44.4839 1612.47 44.9771C1612.58 45.1853 1614.09 50.1031 1615.82 55.9056C1617.56 61.7082 1619.02 66.5174 1619.06 66.5929C1619.1 66.6763 1622.07 62.3997 1626.63 55.6726C1630.76 49.5911 1634.33 44.425 1634.55 44.1924C1634.78 43.9599 1635.2 43.6654 1635.47 43.5381C1635.96 43.3118 1636.1 43.306 1641.87 43.2733C1645.89 43.2503 1647.88 43.2768 1648.16 43.3568C1648.64 43.4974 1649.16 43.9194 1649.38 44.337C1649.57 44.7013 1649.59 45.6493 1649.41 45.9787C1649.18 46.4178 1612.87 98.7547 1612.59 99.0587C1612.44 99.2248 1612.02 99.5045 1611.66 99.6804L1611.01 100L1604.84 99.9704L1598.68 99.9409L1598.28 99.6392C1597.6 99.1204 1597.32 98.3094 1597.59 97.5688C1597.67 97.3338 1600.27 93.576 1603.36 89.2181C1606.45 84.8603 1609.01 81.2381 1609.06 81.1687C1609.1 81.0993 1606.41 73.0474 1603.08 63.2754C1599.74 53.5035 1597.02 45.3553 1597.02 45.1683ZM1574.22 59.3214C1573.28 56.5888 1571.04 54.6964 1568.01 54.0774C1567.14 53.8998 1565.12 53.7872 1564.33 53.8724C1561.41 54.1863 1558.52 55.5843 1556.67 57.5718C1554.37 60.046 1553.08 63.6355 1553.29 66.9292C1553.43 69.1155 1554.16 70.8643 1555.5 72.2106C1556.73 73.4451 1558.08 74.1525 1559.95 74.5394C1561.27 74.8134 1563.67 74.7969 1565.03 74.5043C1569.52 73.5401 1572.74 70.6549 1574.14 66.348C1574.94 63.8945 1574.97 61.4841 1574.22 59.3214Z" fill="black"></path><path d="M1765.31 22.6357C1765.02 22.8119 1764.79 23.062 1764.65 23.3615C1764.49 23.7015 1763.24 31.4149 1759.77 53.4815C1757.21 69.7962 1755.11 83.3035 1755.12 83.4979C1755.12 84.3012 1755.71 85.0253 1756.53 85.2462C1756.82 85.3229 1758.66 85.351 1762.01 85.3297L1767.06 85.2979L1767.63 85.041C1768.38 84.7054 1769.11 83.8987 1769.33 83.1629C1769.52 82.5581 1778.68 24.7079 1778.68 24.1429C1778.68 23.6134 1778.24 22.885 1777.75 22.609L1777.33 22.3686L1771.54 22.3678L1765.76 22.3671L1765.31 22.6357Z" fill="black" fill-opacity="0.5"></path><path fill-rule="evenodd" clip-rule="evenodd" d="M1722.81 42.3521C1722.66 42.3735 1722.1 42.4453 1721.56 42.5117C1721.03 42.5782 1720.03 42.769 1719.35 42.9357C1709.83 45.2581 1702.59 53.179 1700.71 63.3321C1699.74 68.5627 1700.31 73.2688 1702.41 77.4434C1705.47 83.5013 1711.2 86.5547 1719.02 86.2889C1720.91 86.2247 1722.07 86.0587 1723.83 85.6016C1726.85 84.8168 1729.98 83.1635 1732.32 81.1166C1732.82 80.6741 1733.25 80.3246 1733.26 80.3399C1733.28 80.3553 1733.2 80.9684 1733.08 81.7024C1732.95 82.4363 1732.86 83.2201 1732.86 83.444C1732.86 84.2972 1733.42 85.0188 1734.27 85.246C1734.55 85.3226 1736.46 85.3506 1739.96 85.3295L1745.23 85.2979L1745.85 84.9958C1746.63 84.615 1747.28 83.8857 1747.5 83.1575C1747.72 82.4345 1753.5 45.8054 1753.5 45.1475C1753.5 44.2976 1752.95 43.5974 1752.12 43.3653C1751.55 43.2078 1740.83 43.2148 1740.26 43.373C1740.02 43.4384 1739.65 43.6685 1739.44 43.8845C1739 44.3184 1738.93 44.5768 1738.61 46.6833L1738.42 47.9063L1737.9 47.1488C1736 44.3805 1732.83 42.9048 1727.68 42.3948C1726.65 42.2918 1723.42 42.2637 1722.81 42.3521ZM1735.93 66.4914C1737.9 60.6142 1735.47 55.4178 1730.14 54.1273C1729.25 53.9111 1726.9 53.7641 1726.05 53.8716C1720.01 54.6386 1715.75 59.0418 1715.14 65.1645C1714.82 68.3736 1715.92 71.2961 1718.06 72.9129C1720.25 74.5644 1723.45 75.1583 1726.78 74.5299C1731.11 73.7112 1734.51 70.7219 1735.93 66.4914Z" fill="black" fill-opacity="0.5"></path><path fill-rule="evenodd" clip-rule="evenodd" d="M1659.73 22.6904C1659.02 23.0428 1658.63 23.4193 1658.28 24.1043C1658.12 24.4225 1656.95 31.5939 1653.41 54.0297C1649.21 80.6109 1648.76 83.5787 1648.88 83.9607C1649.04 84.5018 1649.63 85.093 1650.16 85.2378C1650.75 85.4015 1662.25 85.392 1662.91 85.2274C1663.54 85.067 1664.27 84.384 1664.44 83.7905C1664.51 83.5536 1665.15 79.6291 1665.86 75.0693C1666.57 70.5095 1667.24 66.5653 1667.33 66.3045C1667.55 65.7161 1668.12 65.0795 1668.76 64.7054C1669.34 64.3669 1669.14 64.3781 1675.74 64.3133C1680.71 64.2645 1682.06 64.1633 1684.66 63.6456C1687.71 63.037 1690.27 62.0886 1692.55 60.7154C1698.24 57.2929 1701.81 51.3878 1703.18 43.1453C1704.36 36.0504 1703.21 30.9245 1699.63 27.3717C1697.17 24.93 1693.82 23.4533 1688.94 22.659C1687.55 22.4323 1687.24 22.4267 1673.96 22.3924L1660.39 22.3572L1659.73 22.6904ZM1684.25 36.3387C1683.65 35.9274 1682.3 35.4384 1681.17 35.2226C1680.07 35.0118 1673.53 34.8937 1673.1 35.0767C1672.74 35.228 1672.36 35.5914 1672.16 35.9704C1672.07 36.14 1671.45 39.7253 1670.78 43.9379L1669.57 51.5973L1672.87 51.6293C1676.22 51.6617 1678 51.5623 1679.46 51.2622C1683.59 50.4127 1685.75 47.9585 1686.44 43.3265C1686.94 39.9563 1686.23 37.7002 1684.25 36.3387Z" fill="black" fill-opacity="0.5"></path><path d="M1858.68 0H1868.96V60.7545H1858.68V0Z" fill="black"></path><path d="M1875.5 0H1880.17V60.7545H1875.5V0Z" fill="black"></path><path d="M1888.59 0H1897V60.7545H1888.59V0Z" fill="black"></path><path d="M1904.48 0H1910.08V60.7545H1904.48V0Z" fill="black"></path><path d="M1917.56 0H1930.65V60.7545H1917.56V0Z" fill="black"></path><path d="M1990.47 0H2001.68V60.7545H1990.47V0Z" fill="black"></path><path d="M1939.99 0H1948.41V60.7545H1939.99V0Z" fill="black"></path><path d="M2009.16 0H2016.64V60.7545H2009.16V0Z" fill="black"></path><path d="M1956.82 0H1963.36V60.7545H1956.82V0Z" fill="black"></path><path d="M2024.12 0H2029.72V60.7545H2024.12V0Z" fill="black"></path><path d="M1973.64 0H1980.19V60.7545H1973.64V0Z" fill="black"></path><path d="M2038.14 0H2048.42V60.7545H2038.14V0Z" fill="black"></path><path d="M1878.84 84.9603C1880.41 85.4701 1881.66 86.3286 1882.58 87.5359C1883.5 88.7164 1883.96 90.192 1883.96 91.9627C1883.96 94.4041 1883.02 96.2955 1881.12 97.637C1879.22 98.9516 1876.46 99.6089 1872.82 99.6089H1858.68V71.4386H1872.01C1875.37 71.4386 1877.96 72.0959 1879.78 73.4105C1881.59 74.6983 1882.5 76.4824 1882.5 78.7629C1882.5 80.158 1882.18 81.3921 1881.53 82.4652C1880.87 83.5384 1879.98 84.3701 1878.84 84.9603ZM1863.96 75.5434V83.3104H1871.44C1873.29 83.3104 1874.7 82.9884 1875.67 82.3445C1876.67 81.6738 1877.18 80.708 1877.18 79.447C1877.18 78.1592 1876.67 77.1934 1875.67 76.5495C1874.7 75.8787 1873.29 75.5434 1871.44 75.5434H1863.96ZM1872.5 95.5041C1876.59 95.5041 1878.64 94.1492 1878.64 91.4395C1878.64 88.7298 1876.59 87.3749 1872.5 87.3749H1863.96V95.5041H1872.5Z" fill="black"></path><path d="M1906.97 100.011C1904.07 100.011 1901.45 99.3943 1899.12 98.1602C1896.79 96.8992 1894.96 95.1687 1893.63 92.9688C1892.3 90.742 1891.64 88.2603 1891.64 85.5237C1891.64 82.7872 1892.3 80.3189 1893.63 78.119C1894.96 75.8922 1896.79 74.1617 1899.12 72.9276C1901.45 71.6666 1904.07 71.0361 1906.97 71.0361C1909.87 71.0361 1912.48 71.6666 1914.81 72.9276C1917.14 74.1617 1918.97 75.8787 1920.3 78.0787C1921.63 80.2787 1922.29 82.7604 1922.29 85.5237C1922.29 88.2871 1921.63 90.7688 1920.3 92.9688C1918.97 95.1687 1917.14 96.8992 1914.81 98.1602C1912.48 99.3943 1909.87 100.011 1906.97 100.011ZM1906.97 95.4236C1908.86 95.4236 1910.57 95.0078 1912.09 94.1761C1913.61 93.3175 1914.8 92.1371 1915.67 90.6346C1916.53 89.1054 1916.97 87.4018 1916.97 85.5237C1916.97 83.6457 1916.53 81.9555 1915.67 80.4531C1914.8 78.9238 1913.61 77.7434 1912.09 76.9117C1910.57 76.0531 1908.86 75.6239 1906.97 75.6239C1905.07 75.6239 1903.36 76.0531 1901.84 76.9117C1900.33 77.7434 1899.13 78.9238 1898.27 80.4531C1897.4 81.9555 1896.96 83.6457 1896.96 85.5237C1896.96 87.4018 1897.4 89.1054 1898.27 90.6346C1899.13 92.1371 1900.33 93.3175 1901.84 94.1761C1903.36 95.0078 1905.07 95.4236 1906.97 95.4236Z" fill="black"></path><path d="M1931.96 71.4386H1937.25V95.1821H1952.13V99.6089H1931.96V71.4386Z" fill="black"></path><path d="M1981.71 95.2224V99.6089H1960.37V71.4386H1981.14V75.8251H1965.65V83.1494H1979.39V87.4554H1965.65V95.2224H1981.71Z" fill="black"></path><path d="M1997.44 75.8653H1988.01V71.4386H2012.16V75.8653H2002.73V99.6089H1997.44V75.8653Z" fill="black"></path><path d="M2033.09 100.011C2030.19 100.011 2027.57 99.3943 2025.24 98.1602C2022.91 96.8992 2021.08 95.1687 2019.75 92.9688C2018.43 90.742 2017.76 88.2603 2017.76 85.5237C2017.76 82.7872 2018.43 80.3189 2019.75 78.119C2021.08 75.8922 2022.91 74.1617 2025.24 72.9276C2027.57 71.6666 2030.19 71.0361 2033.09 71.0361C2035.99 71.0361 2038.61 71.6666 2040.94 72.9276C2043.27 74.1617 2045.1 75.8787 2046.43 78.0787C2047.75 80.2787 2048.42 82.7604 2048.42 85.5237C2048.42 88.2871 2047.75 90.7688 2046.43 92.9688C2045.1 95.1687 2043.27 96.8992 2040.94 98.1602C2038.61 99.3943 2035.99 100.011 2033.09 100.011ZM2033.09 95.4236C2034.99 95.4236 2036.69 95.0078 2038.21 94.1761C2039.73 93.3175 2040.92 92.1371 2041.79 90.6346C2042.66 89.1054 2043.09 87.4018 2043.09 85.5237C2043.09 83.6457 2042.66 81.9555 2041.79 80.4531C2040.92 78.9238 2039.73 77.7434 2038.21 76.9117C2036.69 76.0531 2034.99 75.6239 2033.09 75.6239C2031.19 75.6239 2029.48 76.0531 2027.97 76.9117C2026.45 77.7434 2025.26 78.9238 2024.39 80.4531C2023.52 81.9555 2023.09 83.6457 2023.09 85.5237C2023.09 87.4018 2023.52 89.1054 2024.39 90.6346C2025.26 92.1371 2026.45 93.3175 2027.97 94.1761C2029.48 95.0078 2031.19 95.4236 2033.09 95.4236Z" fill="black"></path><path fill-rule="evenodd" clip-rule="evenodd" d="M2176.32 0.097673L2164.81 0.160812L2163.13 0.479757C2158.36 1.38924 2155.4 2.51599 2152.54 4.52181C2151.4 5.32231 2149.56 7.11353 2148.68 8.27939C2147.68 9.59672 2146.59 11.8866 2146.1 13.6926C2145.62 15.4476 2144.34 21.5558 2140.45 40.6033C2139.82 43.6993 2138.89 48.2693 2138.38 50.7589C2137.87 53.2485 2136.74 58.7848 2135.86 63.0617C2134.99 67.3387 2134.05 71.961 2133.76 73.3334C2130.02 91.4981 2128.36 99.7418 2128.42 99.8857C2128.47 100.011 2145.29 100.026 2224.59 99.9662C2318.95 99.8958 2320.73 99.8903 2322.48 99.6682C2327.24 99.0641 2331.33 97.6693 2334.15 95.6909C2335.41 94.8122 2337.48 92.7592 2338.23 91.6478C2339.52 89.738 2340.41 87.6264 2340.91 85.2881C2341.25 83.7407 2347.85 51.6474 2349 46.0003C2349.38 44.1491 2350.24 39.9446 2350.92 36.6571C2351.6 33.3696 2352.98 26.6321 2354 21.6848C2355.01 16.7376 2356.42 9.8993 2357.13 6.48864C2357.84 3.07809 2358.42 0.218496 2358.42 0.134117C2358.42 0.00714276 2343.75 -0.0145611 2273.12 0.00760722C2226.21 0.0223474 2182.65 0.0628537 2176.32 0.097673ZM2338.54 29.8968C2338.54 29.9449 2338.3 31.1593 2338.01 32.5953C2336.89 38.1691 2334.37 52.124 2333.89 55.4015C2333.48 58.2811 2332.96 62.8087 2332.96 63.555L2332.96 64.2804H2330.73H2328.51L2328.59 63.497C2328.63 63.0662 2328.73 62.2304 2328.82 61.64C2328.9 61.0495 2328.94 60.5689 2328.9 60.572C2328.86 60.5753 2328.54 60.9936 2328.19 61.5016C2327.38 62.6792 2326.58 63.369 2325.37 63.9357C2322.79 65.1389 2318.6 65.1489 2316.05 63.9581C2314.38 63.1784 2313.49 62.1826 2312.86 60.4119C2312.06 58.1543 2312.13 54.2818 2313.02 51.0506C2314.13 47.0257 2316.01 43.909 2318.38 42.163C2320.19 40.8205 2322.4 40.0092 2324.89 39.7652C2326.75 39.5837 2329.22 39.7768 2330.82 40.2269L2331.99 40.5578L2332.3 38.6365C2332.79 35.6918 2333.38 31.9538 2333.54 30.8249L2333.68 29.8093H2336.11C2337.45 29.8093 2338.54 29.8487 2338.54 29.8968ZM2190.15 30.3026C2190.37 30.4463 2190.66 30.7666 2190.8 31.0146C2191.03 31.4183 2191.05 31.5729 2190.98 32.4872C2190.82 34.7396 2189.67 35.9607 2187.71 35.9607C2186.73 35.9607 2186.02 35.6461 2185.76 35.0915C2185.43 34.4142 2185.48 32.8819 2185.86 31.982C2186.42 30.637 2187.3 30.0677 2188.84 30.0511C2189.59 30.0431 2189.81 30.0856 2190.15 30.3026ZM2160.17 30.7088C2160.07 31.0653 2159.3 35.163 2159.11 36.367C2159.01 37.0053 2158.7 38.7289 2158.42 40.1971C2158.14 41.6653 2157.86 43.1365 2157.8 43.4665L2157.69 44.0665L2158.4 44.1543C2159.25 44.2596 2172.49 44.2565 2172.97 44.1509L2173.31 44.0769L2173.63 41.9629C2173.81 40.8001 2174.29 37.9164 2174.7 35.5545C2175.11 33.1926 2175.47 31.0904 2175.51 30.8829L2175.57 30.5057H2178.4H2181.23L2181.02 31.4052C2180.9 31.8999 2180.51 33.9238 2180.15 35.9027C2179.8 37.8816 2179.17 41.3026 2178.76 43.5049C2178 47.5539 2176.29 57.5479 2175.67 61.4949C2175.48 62.6758 2175.3 63.7856 2175.26 63.9612L2175.19 64.2804H2172.41C2169.94 64.2804 2169.63 64.26 2169.63 64.0938C2169.63 63.8693 2170.08 61.4018 2171.54 53.5517C2172.36 49.1888 2172.61 47.5997 2172.52 47.4873C2172.34 47.2689 2157.4 47.2619 2157.22 47.4801C2157.16 47.56 2156.97 48.3564 2156.8 49.2501C2156.5 50.8882 2154.29 64.0006 2154.29 64.1825C2154.29 64.2363 2153.03 64.2804 2151.5 64.2804C2148.99 64.2804 2148.71 64.2613 2148.71 64.0898C2148.71 63.985 2149.2 61.3605 2149.81 58.2576C2151.43 49.9493 2151.86 47.5452 2153.01 40.3391C2154.34 32.0316 2154.52 30.9568 2154.59 30.7088C2154.65 30.5226 2154.88 30.5057 2157.44 30.5057C2160.04 30.5057 2160.23 30.5194 2160.17 30.7088ZM2208.58 40.0037C2211.37 40.7103 2213.12 42.5007 2213.82 45.3727C2214.22 46.9794 2214.2 49.4417 2213.78 51.7495C2213.27 54.4931 2212.1 57.6313 2210.87 59.539C2209.58 61.5297 2207.78 63.0982 2205.76 63.9747C2204.79 64.401 2202.81 64.8376 2201.48 64.9224C2198.41 65.1185 2196.43 64.2894 2195.3 62.3295C2195.11 61.9906 2194.92 61.7423 2194.88 61.778C2194.81 61.851 2193.64 69.2048 2193.16 72.579C2192.99 73.7919 2192.83 74.8496 2192.81 74.9293C2192.78 75.0396 2192.19 75.0744 2190.33 75.0744C2188.98 75.0744 2187.88 75.0526 2187.88 75.026C2187.88 74.9994 2188.14 73.6545 2188.46 72.0373C2190.04 63.9987 2191.85 53.7172 2193.99 40.6323L2194.05 40.2551H2196.14C2197.43 40.2551 2198.23 40.2987 2198.23 40.3689C2198.23 40.4314 2198.14 40.9036 2198.04 41.4183C2197.94 41.9329 2197.88 42.3827 2197.91 42.4177C2197.95 42.4528 2198.33 42.2179 2198.75 41.8958C2200.21 40.7939 2202.3 39.9788 2204.27 39.7449C2205.19 39.6361 2207.72 39.7885 2208.58 40.0037ZM2233.04 40.0245C2235.59 40.5775 2237.34 42.0496 2237.82 44.0463C2238.13 45.3565 2237.95 48.3519 2237.43 50.7009L2237.34 51.1071L2229.18 51.1651C2223.97 51.2023 2220.99 51.2651 2220.92 51.3392C2220.73 51.548 2220.43 54.0951 2220.43 55.447C2220.43 58.3431 2221.49 60.158 2223.69 61.042L2224.68 61.4368L2226.91 61.4728C2228.82 61.5035 2229.34 61.4725 2230.4 61.2629C2231.72 61.0038 2233.45 60.4813 2234.47 60.0336C2234.88 59.8559 2235.08 59.8134 2235.08 59.9066C2235.08 59.9837 2234.95 60.6728 2234.8 61.4381C2234.64 62.2034 2234.49 63.0189 2234.45 63.2502L2234.38 63.6708L2233.19 63.9196C2228.56 64.8884 2224.78 65.0895 2221.97 64.5172C2220.48 64.2154 2219.72 63.9329 2218.85 63.3657C2217.31 62.3677 2216.41 61.0821 2215.83 59.074C2215.54 58.0434 2215.53 57.924 2215.58 55.7168C2215.62 53.804 2215.68 53.1807 2215.95 51.9196C2216.75 48.1088 2218.07 45.202 2219.84 43.3569C2221.78 41.3299 2224.03 40.2853 2227.54 39.7913C2228.8 39.615 2231.73 39.7394 2233.04 40.0245ZM2254.84 39.9123C2255.32 40.0429 2255.78 40.1913 2255.87 40.242C2255.99 40.3155 2255.95 40.6739 2255.7 42.0066C2255.53 42.9264 2255.38 43.6919 2255.36 43.7077C2255.35 43.7233 2255.09 43.6635 2254.77 43.5745C2254.46 43.4856 2253.59 43.3834 2252.84 43.3474L2251.48 43.2818L2250.57 43.7125C2248.99 44.4552 2247.65 45.9199 2246.7 47.9494C2246.07 49.2985 2245.27 52.9753 2244.33 58.9415C2244.1 60.3778 2243.86 62.1667 2243.78 62.9167L2243.64 64.2804H2241.22C2239.51 64.2804 2238.8 64.2422 2238.8 64.1505C2238.8 64.079 2239.19 62.0291 2239.67 59.595C2240.15 57.1609 2240.76 53.9942 2241.01 52.5579C2241.5 49.8183 2242.98 40.6552 2242.98 40.4022C2242.98 40.2888 2243.48 40.2551 2245.14 40.2551C2247.14 40.2551 2247.3 40.27 2247.24 40.4582C2247.12 40.8984 2246.57 44.1045 2246.61 44.1488C2246.64 44.1747 2246.96 43.7924 2247.32 43.2991C2248.45 41.7621 2249.3 40.9905 2250.51 40.3812C2251.95 39.6621 2253.35 39.5109 2254.84 39.9123ZM2271.41 39.8497C2272.62 39.9431 2273.67 40.0211 2273.73 40.0231C2274.15 40.0354 2274.15 40.1925 2273.84 42.0648C2273.68 43.0803 2273.52 43.9261 2273.5 43.9444C2273.49 43.9627 2273.22 43.877 2272.9 43.7539C2272.59 43.6308 2271.63 43.3849 2270.77 43.2073C2269.48 42.9427 2268.88 42.8828 2267.45 42.8755C2265.9 42.8675 2265.59 42.9002 2264.59 43.18C2262.54 43.7531 2261.37 44.7832 2260.28 46.9974C2258.27 51.057 2257.74 56.7425 2259.13 59.2038C2260.01 60.7392 2261.27 61.4085 2263.56 61.5524C2265.48 61.6729 2267.98 61.1357 2270.56 60.0488C2270.73 59.9763 2270.75 60.0231 2270.69 60.4111C2270.53 61.4841 2270.09 63.4961 2270 63.5883C2269.82 63.7678 2267.73 64.2723 2266.06 64.5403C2263.75 64.9102 2260.73 64.9027 2259.14 64.5235C2256.57 63.9083 2254.98 62.5464 2254.03 60.1647C2253.58 59.0298 2253.45 58.1294 2253.45 56.0398C2253.45 53.2444 2253.74 51.4886 2254.69 48.7278C2255.73 45.6571 2257.48 43.1413 2259.54 41.7369C2262.18 39.9316 2265.54 39.3981 2271.41 39.8497ZM2291.81 40.0636C2293.91 40.527 2295.11 41.3 2295.78 42.6183L2296.13 43.2985L2296.01 45.1717C2295.92 46.5765 2295.72 48.0024 2295.2 50.875C2294.12 56.7738 2293.67 59.8278 2293.52 62.1622L2293.39 64.2804H2291.32H2289.25V63.5444C2289.25 63.1396 2289.31 62.3862 2289.38 61.8703C2289.57 60.4419 2289.53 60.4174 2288.66 61.4526C2287.38 62.9846 2285.88 63.9578 2284.03 64.4636C2283.13 64.711 2282.7 64.755 2280.97 64.7771C2279.1 64.801 2278.89 64.7817 2277.83 64.4862C2276.08 63.9985 2275.13 63.2996 2274.3 61.8972C2273.7 60.8698 2273.49 58.3019 2273.85 56.272C2274.11 54.7474 2274.93 53.1716 2276.06 51.9867C2277.46 50.522 2278.75 49.8262 2281.44 49.0719L2282.66 48.7278H2286.82C2290.68 48.7278 2290.98 48.7132 2291.04 48.5247C2291.25 47.8396 2291.46 46.5087 2291.46 45.8168C2291.46 45.0886 2291.42 44.9506 2291.05 44.3976C2290.55 43.6364 2289.81 43.2484 2288.36 42.9732C2286.45 42.6127 2282.69 42.9792 2279.37 43.8474C2278.9 43.9724 2278.5 44.064 2278.48 44.051C2278.46 44.0309 2279.2 40.8391 2279.32 40.4002C2279.35 40.303 2279.61 40.2551 2280.13 40.2551C2280.55 40.2551 2281.55 40.175 2282.37 40.0772C2286.31 39.6019 2289.7 39.597 2291.81 40.0636ZM2314.04 39.976C2314.76 40.2137 2314.94 40.3174 2314.89 40.4692C2314.77 40.8812 2314.36 43.1839 2314.36 43.4528C2314.36 43.7859 2314.32 43.793 2313.66 43.5629C2313.32 43.4414 2312.7 43.3888 2311.61 43.3888C2310.19 43.3888 2310 43.4139 2309.5 43.6694C2306.86 45.0228 2305.52 47.1292 2304.54 51.4539C2303.96 54.035 2302.62 62.5086 2302.62 63.5787V64.2804H2300.13C2297.82 64.2804 2297.65 64.2658 2297.69 64.0773C2297.83 63.455 2299.4 55.3404 2299.7 53.7186C2300.16 51.2205 2301.13 45.3827 2301.51 42.8085C2301.68 41.6914 2301.84 40.6599 2301.87 40.5163C2301.93 40.2572 2301.94 40.2551 2304.02 40.2551C2305.97 40.2551 2306.11 40.269 2306.11 40.4692C2306.11 40.5871 2305.97 41.3989 2305.81 42.2732C2305.64 43.1477 2305.53 43.9183 2305.55 43.986C2305.57 44.0535 2305.82 43.7771 2306.1 43.3717C2308.25 40.2897 2311.2 39.0292 2314.04 39.976ZM2189.26 41.2126C2188.32 45.5719 2185.82 59.7125 2185.41 63.0037L2185.26 64.2224L2182.79 64.2537C2181.44 64.2709 2180.33 64.268 2180.33 64.2471C2180.33 64.2263 2180.59 62.9064 2180.91 61.3142C2182.21 54.8634 2183.9 45.238 2184.41 41.3287L2184.55 40.2551H2187.01H2189.47L2189.26 41.2126ZM2227.14 42.8237C2225.81 42.9942 2224.69 43.5325 2223.7 44.4827C2222.8 45.3544 2222.34 46.1012 2221.79 47.6439L2221.49 48.4749L2222.56 48.5498C2223.15 48.591 2225.8 48.6087 2228.45 48.5892L2233.28 48.5537L2233.4 47.3931C2233.64 45.1262 2233.12 43.9008 2231.6 43.2086C2230.55 42.7274 2228.96 42.5901 2227.14 42.8237ZM2202.41 42.8922C2201.86 42.9557 2200.67 43.3273 2200.11 43.611C2199.86 43.7398 2199.24 44.1558 2198.73 44.5354L2197.81 45.2257L2196.84 50.5457C2195.72 56.6878 2195.65 57.4872 2196.13 58.9415C2196.49 60.0438 2197.16 60.8086 2198.17 61.2611C2199.07 61.666 2199.57 61.7538 2200.84 61.7365C2201.7 61.7249 2202.09 61.6539 2202.94 61.3564C2203.51 61.1553 2204.23 60.815 2204.53 60.6004C2206.35 59.2895 2207.7 56.7917 2208.61 53.0222C2208.85 52.0457 2208.92 51.3622 2208.99 49.583C2209.07 47.4886 2209.06 47.3138 2208.81 46.5087C2208.46 45.3552 2208.18 44.8163 2207.6 44.2257C2206.58 43.1644 2204.56 42.6467 2202.41 42.8922ZM2325.05 42.9247C2324.12 43.0232 2322.96 43.4273 2322.26 43.893C2321.61 44.3352 2320.55 45.4058 2320.05 46.1218C2318.95 47.7251 2317.89 50.6194 2317.56 52.921C2317.34 54.4527 2317.34 57.3787 2317.55 58.2763C2318.07 60.452 2319.75 61.6463 2322.26 61.6214C2324.88 61.5954 2327.15 60.197 2328.32 57.8784C2328.68 57.1567 2329.2 55.4589 2329.58 53.7595C2329.95 52.0805 2331.45 43.8136 2331.39 43.7555C2331.36 43.7267 2330.67 43.5018 2329.85 43.2558C2328.48 42.8439 2328.27 42.81 2327.09 42.8269C2326.39 42.8368 2325.47 42.8809 2325.05 42.9247ZM2283.32 51.6779C2281.69 52.1071 2281 52.4793 2280.1 53.4118C2279.42 54.1106 2279.22 54.414 2278.84 55.3435C2278.39 56.4152 2278.38 56.4834 2278.39 57.7808C2278.4 58.9059 2278.44 59.1905 2278.65 59.5933C2279.19 60.6459 2279.9 61.1778 2281.24 61.5251C2282.48 61.8494 2284.68 61.4632 2286.05 60.6794C2286.78 60.2645 2288.06 58.9543 2288.5 58.182C2289.02 57.2661 2289.87 54.7008 2290.2 53.0419C2290.47 51.7435 2290.47 51.7248 2290.25 51.5621C2290.06 51.4295 2289.46 51.3994 2287.16 51.4078C2284.6 51.4172 2284.21 51.4449 2283.32 51.6779Z" fill="black"></path><path fill-rule="evenodd" clip-rule="evenodd" d="M2485.02 0.0228434C2484.78 0.0503123 2483.97 0.132222 2483.22 0.20481C2481.19 0.401567 2478.37 0.90272 2476.2 1.45322C2474.49 1.88762 2472.73 2.4022 2472.61 2.50698C2472.59 2.52761 2474.03 6.94241 2475.83 12.3176C2478.6 20.6329 2479.11 22.0788 2479.29 22.0104C2479.88 21.7776 2482.91 21.0721 2484.15 20.877C2486.14 20.5659 2490.58 20.5645 2492.66 20.8745C2501.03 22.1187 2508.33 26.7836 2513.03 33.8821C2514.72 36.4382 2516.39 40.3253 2517.03 43.1731C2517.15 43.6688 2517.3 44.0753 2517.38 44.0766C2517.65 44.0811 2537.29 40.0615 2537.38 39.9843C2537.6 39.7963 2536.36 35.252 2535.35 32.5308C2530.96 20.7357 2522.07 10.8362 2510.79 5.18949C2506.87 3.22416 2502.2 1.64326 2497.89 0.822675C2494.78 0.230041 2492.94 0.0602559 2489.13 0.0157586C2487.11 -0.00773292 2485.26 -0.00462556 2485.02 0.0228434ZM2453.76 13.8978C2444.98 22.2789 2439.56 33.7127 2438.54 46.0008C2438.38 47.9166 2438.38 52.0397 2438.54 53.9556C2439.45 64.9059 2443.67 74.8137 2450.97 83.1481C2452.21 84.5664 2455.13 87.4616 2455.3 87.4453C2455.37 87.4384 2468.54 72.5916 2468.8 72.2232C2468.89 72.0965 2468.59 71.7145 2467.61 70.7109C2463.71 66.6932 2461.29 62.448 2459.98 57.3115C2459.27 54.5519 2459.11 53.1991 2459.12 49.916C2459.12 47.4514 2459.16 46.7342 2459.41 45.3247C2460.46 39.145 2463.1 33.9223 2467.46 29.4007C2468.74 28.0734 2468.88 27.8925 2468.72 27.7024C2468.35 27.2392 2455.3 12.5036 2455.26 12.5036C2455.24 12.5036 2454.56 13.131 2453.76 13.8978ZM2616.44 43.7324C2616.48 72.65 2616.49 74.2634 2616.71 75.1477C2617.5 78.4307 2619.34 81.0202 2622.01 82.6096C2622.74 83.0456 2633.3 87.5265 2633.37 87.431C2633.44 87.3361 2638.4 75.6907 2638.43 75.5336C2638.46 75.4111 2637.16 74.8261 2634 73.5393L2629.53 71.7184L2629.49 42.4839L2629.46 13.2493H2622.94H2616.41L2616.44 43.7324ZM2578.37 26.2604C2567.7 27.0442 2558.79 32.9392 2553.97 42.4181C2552.22 45.8785 2551.27 48.8505 2550.64 52.9612C2550.4 54.4676 2550.44 58.875 2550.69 60.6125C2550.97 62.4524 2551.5 64.6205 2552.14 66.5093C2552.67 68.0582 2554.8 72.5137 2555.06 72.6127C2555.19 72.6649 2609.91 48.8871 2610.09 48.6961C2610.21 48.5747 2609.21 46.0546 2608.26 44.0888C2605.49 38.332 2601.82 34.0396 2597.23 31.1874C2591.45 27.6027 2584.57 25.8055 2578.37 26.2604ZM2666.07 26.4374C2664.15 26.6685 2660.22 27.5712 2659.95 27.8432C2659.9 27.891 2660.84 30.8774 2662.05 34.4796C2663.94 40.1675 2664.26 41.0262 2664.47 41.0076C2664.6 40.996 2665.4 40.8367 2666.26 40.6538C2667.7 40.3449 2667.97 40.3255 2669.99 40.3824C2671.78 40.433 2672.39 40.5008 2673.44 40.767C2678.24 41.978 2682.1 45.076 2684.31 49.4829C2684.87 50.5951 2685.65 52.8031 2685.65 53.2735C2685.65 53.4262 2685.73 53.5202 2685.87 53.5197C2686.2 53.5183 2699.32 50.8297 2699.4 50.7459C2699.51 50.6367 2698.98 48.5559 2698.43 46.9524C2695.8 39.277 2690.25 32.9723 2682.98 29.4092C2680.12 28.008 2677.25 27.0958 2674.15 26.6014C2672.66 26.3637 2667.54 26.2599 2666.07 26.4374ZM2647.66 35.5242C2638.98 44.4594 2636.56 57.4661 2641.46 68.948C2642.93 72.374 2645.24 75.7597 2647.98 78.4799C2649.01 79.4959 2649.3 79.7232 2649.42 79.5958C2649.5 79.5078 2651.48 77.2824 2653.83 74.6505C2656.17 72.0186 2658.2 69.7419 2658.34 69.5911L2658.58 69.3171L2657.56 68.2239C2655.29 65.7947 2653.9 63.0817 2653.25 59.7817C2652.93 58.1506 2652.96 55.2255 2653.31 53.5536C2653.99 50.3686 2655.58 47.4014 2657.81 45.1614L2658.65 44.3221L2654.05 39.1953C2651.52 36.3756 2649.39 34.0524 2649.3 34.0326C2649.22 34.0129 2648.48 34.6841 2647.66 35.5242ZM2583.9 39.5289C2585.45 39.9269 2587.33 40.8364 2588.7 41.8472C2589.77 42.6354 2591.8 44.5628 2591.8 44.7874C2591.8 44.8554 2589.83 45.7589 2587.42 46.7951C2585.01 47.8314 2578.84 50.4867 2573.71 52.6957L2564.39 56.7122L2564.28 56.3282C2564.12 55.7315 2564.28 52.9747 2564.57 51.5649C2565.2 48.4921 2566.4 46.2328 2568.55 44.0615C2569.8 42.7995 2571 41.9241 2572.53 41.1549C2574.39 40.2159 2576.65 39.4919 2578.53 39.2268C2579.94 39.0274 2582.52 39.1722 2583.9 39.5289ZM2516.96 57.0319C2516.01 60.948 2513.94 65.1519 2511.42 68.3115C2507.43 73.306 2501.73 76.9718 2495.59 78.4902C2490.63 79.715 2485.5 79.6547 2480.61 78.3142C2479.79 78.0894 2479.11 77.9167 2479.09 77.9304C2479.03 77.9896 2472.59 97.2028 2472.59 97.3293C2472.59 97.6081 2476.75 98.7575 2479.55 99.2545C2484.46 100.124 2490.54 100.242 2495.34 99.5616C2510.81 97.3693 2524.23 88.2324 2532.02 74.5884C2533.64 71.7585 2535.26 68.0106 2536.23 64.8313C2536.78 63.0437 2537.52 60.1094 2537.44 60.0288C2537.4 59.9831 2517.51 55.8821 2517.33 55.8821C2517.28 55.8821 2517.12 56.3996 2516.96 57.0319ZM2685.53 60.9471C2684.88 63.8939 2682.77 67.2845 2680.31 69.3496C2677.47 71.728 2674.59 72.9336 2670.88 73.297C2669.2 73.4619 2667.2 73.2944 2665.4 72.8378C2664.75 72.6743 2664.21 72.5538 2664.2 72.5701C2664.19 72.5864 2663.21 75.5081 2662.03 79.063C2660.85 82.6178 2659.86 85.5904 2659.83 85.6688C2659.77 85.8341 2660.45 86.0746 2662.22 86.5083C2667.66 87.8466 2673.68 87.6331 2678.94 85.9155C2684.83 83.9907 2690.25 80.1163 2693.9 75.2272C2696.28 72.031 2697.83 68.9509 2698.86 65.3247C2699.49 63.1421 2699.51 63.0029 2699.24 62.9195C2698.81 62.7895 2686.13 60.2324 2685.91 60.2324C2685.74 60.2324 2685.65 60.4052 2685.53 60.9471ZM2594.1 67.211C2591.85 70.2545 2588.31 72.4792 2583.91 73.6103C2582.64 73.9367 2582.37 73.9618 2580.12 73.9634C2577.96 73.9649 2577.58 73.9335 2576.63 73.6744C2575.32 73.312 2573.08 72.2339 2572.1 71.487C2571.69 71.1761 2571.32 70.9217 2571.28 70.9217C2571.24 70.9217 2569.55 73.4066 2567.53 76.4437L2563.84 81.9658L2564.86 82.6229C2568.09 84.6994 2572.11 86.2614 2576.08 86.9735C2577.49 87.2278 2578.08 87.2637 2580.8 87.2616C2583.48 87.2596 2584.12 87.2205 2585.5 86.975C2592.98 85.6394 2599.95 81.6882 2604.25 76.3448C2605.53 74.7565 2606.17 73.7987 2606.02 73.6706C2605.87 73.539 2595.85 66.8322 2595.28 66.4812L2594.84 66.2128L2594.1 67.211Z" fill="black"></path></svg>